<svg xmlns="http://www.w3.org/2000/svg" width="96" height="86.4" data-name="Layer 1" viewBox="0 0 71.7 67.6"><path fill="#fff" stroke="#fff" stroke-miterlimit="10" d="M44 30.9a1.7 1.7 0 0 1 1.6 1.8 1.6 1.6 0 0 1-1.8 1.7 1.7 1.7 0 0 1-1.7-1.8 1.7 1.7 0 0 1 1.9-1.7zm-14.9 3.6c-1-.1-1.7-.6-1.7-1.7a1.6 1.6 0 0 1 1.5-1.8 1.6 1.6 0 0 1 1.8 1.6c.1 1.1-.6 1.6-1.6 1.9zm.9 18.3c-2-.6-1.9-2.6-2.7-4s.3-.7.7-.8.7-.3.9.3a10 10 0 0 0 .8 1.7c.8 1.7 1.4 1.8 2.9.5s.8-.9 1.2-1c2.1-.5 2.4-1.9 2.3-3.8s.4-3.4-1.4-4.7a7.9 7.9 0 0 1-1.2-1.3 5.4 5.4 0 0 1 7.1 0c-.8 1.5-2.3 2.3-2.7 4.3-.7 4 2 5.3 4.3 7s1.5 0 1.9-.8a20.2 20.2 0 0 0 .9-2c.2-.6.7-.5 1.1-.3s.8.5.6 1-1 3.2-2.8 3.9-2.8-.3-4-1.4-3.7-1.6-5.7 0l-1.7 1.2a4.1 4.1 0 0 1-2.5.2z"/><path fill="#fff" stroke="#fff" stroke-miterlimit="10" d="M30 52.8h2.5a2 2 0 0 1-2.5 0zm6.7-9.9v5.4h-.1V43zM12.1 32.2c-2.6-.9-2.6-4.5-.9-6.1s3.3-3.4 5.1-5a8.3 8.3 0 0 1 11.6-.2L30 23c.6.5.4.9-.1 1.4s-.9.4-1.4-.1l-2-2a6.3 6.3 0 0 0-8.7-.1c-1.7 1.6-3.3 3.4-5.1 5a2.7 2.7 0 0 0-.7 2.5c-.2.5.2.7.5.9s.4 1.3-.4 1.6zM56 21.8c-2.8-1.8-5.5-1.4-8.3.1-.4.2-.9.4-1.2-.1s.1-.6.3-.8l.9-1.1a8.1 8.1 0 0 1 10 .9c1.9 1.7 3.7 3.6 5.4 5.4s1.6 3.5 0 5.2c-.8-.2-.5-.7-.3-1.2a2.1 2.1 0 0 0 0-2c-2.2-2.2-4.1-4.7-6.8-6.4z"/><path fill="#fff" stroke="#fff" stroke-miterlimit="10" d="M63.1 27.9c1.3 1.2-.5 2.4-.1 3.6s-2.5 1.5-4 .9l-2.5-1.1c-1.2-.6-2.3-.7-3 .7s-.9.7-1.5.2-.4-.9 0-1.4 2.5-2.2 4.8-1.4a14.1 14.1 0 0 1 2.4 1 2.2 2.2 0 0 0 3.1-.6c.9-.4.1-1.5.8-1.9zm-51 4.3c.2-.4 1.2-.7.2-1.3s-.7-.6-.2-1.1c.8 1.3 1.9.9 2.9.4a28.8 28.8 0 0 1 3.3-1.2 3.8 3.8 0 0 1 4.3 2c.4.6 0 .8-.4 1.1s-.8.8-1.3.1-2.9-1.2-4.5-.5-2.7 1.6-4.3.5z"/><path fill="#fff" stroke="#fff" stroke-miterlimit="10" d="M63.1 27.9c-.3.6.8 1.9-.9 1.8a2.6 2.6 0 0 0-1-2.6L56 21.8c.9-.6 1.1.3 1.6.7zM47.7 20a1.8 1.8 0 0 1-.6 1.2c-.9 1.1.3.6.6.8l-1.2 1.2c-.9-.1-1.2.3-1.2 1.2s-.6.5-1 .1-.9-.6-.3-1.2 2.3-2.5 3.7-3.3z"/><path fill="#fff" stroke="#fff" stroke-miterlimit="10" d="M45.4 24.3c-1.1-.5-.5-1 0-1.4s1-.8 1.2.3zm-31.3 7.4a4.4 4.4 0 0 1 2.9-1.1c-1.2.7-1.8 1.2-2.9 1.1z"/></svg>