<svg id="Layer_1" data-name="Layer 1" xmlns="http://www.w3.org/2000/svg" width="1.1in" height="1in" viewBox="0 0 81 70.8"><title>Artboard 7</title><path d="M34.8,30.5c-.2,1-.8,1.8-1.8,1.7a1.7,1.7,0,0,1-1.7-1.8,1.6,1.6,0,0,1,1.8-1.7C34.2,28.8,34.7,29.5,34.8,30.5Z" fill="#262424"/><path d="M49.7,30.3c-.1,1.2-.7,1.9-1.7,1.9a1.6,1.6,0,0,1-1.8-1.7,1.6,1.6,0,0,1,1.6-1.8A1.7,1.7,0,0,1,49.7,30.3Z" fill="#252324"/><path d="M44.7,50.6h-.1c-.6-.8-1.7-1.1-1.7-2.3a11.5,11.5,0,0,1-1-3.4c-.2-2.1,1.7-1.3,2.5-2s1.2-2.2-.3-2.9a7.9,7.9,0,0,0-6.1-.2c-.8.3-1.5.7-1.5,1.6s.7,1.5,1.5,1.8,2.4,1.5,1.6,3.7a9.6,9.6,0,0,1-2,2.9c0,.7-.6.8-1.1,1s-.9,1.1-.5,1.9c.5,3.9,2.7,5.9,5.9,5.1s3.5-2.7,3.7-5.2S45.5,51,44.7,50.6Zm-3.5,5.5h-.7a3.2,3.2,0,0,1-2.4-3.6c.1-1.7,2.3-2,2.4-3.5l3.1,2.8V54A4.4,4.4,0,0,1,41.3,56.1Z" fill="#242122"/><path d="M45.7,52.6c.3-1.1-.6-1.5-1.2-2a.3.3,0,0,1,.5,0c5,1.4,8.2-.2,9.4-4.9.3-.9.8-1,1.4-.9s.6.9.5,1.4a8.2,8.2,0,0,1-9.9,6.7Z" fill="#211f20"/><path d="M37.7,49.8c.6.7-.2,1-.5,1.1s-.8,1.1-1,1.8c-5,1.2-9.5-1.4-10.5-6.2-.1-.6-.7-1.5.5-1.7s1.2.4,1.5,1.3c.6,2.5,1.9,4.5,4.7,5A4.5,4.5,0,0,0,35,51Z" fill="#212020"/><path d="M45,50.6h-.5c-.7-.7-2-1-1.6-2.4Z" fill="#110e0f"/><path d="M35,51a2.4,2.4,0,0,1-2.8,0Z" fill="#242122"/><path d="M40.6,56.1h.7C41,56.4,40.8,56.4,40.6,56.1Z" fill="#f9f9f8"/><path d="M43.7,54V51.8A2.5,2.5,0,0,1,43.7,54Z" fill="#f9f9f8"/><path d="M44,54.1h-.3V51.8C44.6,52.5,44,53.3,44,54.1Z" fill="#0d0a0b"/><path d="M41.7,56.3a1.4,1.4,0,0,1-1.6,0l.5-.2h.7Z" fill="#0c0a0b"/><path d="M46.9,51.9h2.7v.2H46.9Z" fill="#242122"/><path d="M32.2,51.9H35v.2H32.2Z" fill="#242122"/><path d="M19,35.3c-.5-.4-.4-.9-.4-1.5a24.3,24.3,0,0,0-3-11c-1.3-2.5-.9-3.8,1.4-5.3C22,14.5,27.3,14,32.9,14.7c.8.1,1,.4.9,1.1s-.7.9-1.4.8c-4.9-.7-9.6-.2-13.9,2.4-1.4.9-1.8,1.7-.9,3.2a19.9,19.9,0,0,1,2.7,8.4,8.4,8.4,0,0,0-.1,2.5,1.6,1.6,0,0,1,.2-1.4,3.8,3.8,0,0,1,.3,1.9c.1,1.4.7,1.9,2.1,1.4s1-1.5,1.6-.6-.3,1.6-1.1,2.1l-.5.2C21.1,37.1,20.1,36.1,19,35.3Z" fill="#232021"/><path d="M66.6,21.7a23.2,23.2,0,0,0-3.3,9.7c-.4,1.1.1,2.2-.3,3.3s-.4.7-.5,1a1.1,1.1,0,0,0-1.4.1,1.4,1.4,0,0,1-1.8,0c-.4-.4-.2-.7.4-.6,2.1-.1,1.6-1.8,1.9-3.1s-.1-1.4.3-2.1A17.7,17.7,0,0,1,64,22.8c1.2-2.4,1.2-2.4-1.1-4a.8.8,0,0,1-.1-.7,1.1,1.1,0,0,0,1-.6h.5a4.5,4.5,0,0,1,2.2,2.1A2.9,2.9,0,0,1,66.6,21.7Z" fill="#1e1d1d"/><path d="M22.6,36.5c.5-.6,1.6-.8,1.5-2s-.8,1.2-1.5.5a3.2,3.2,0,0,0,.7-2.4A12.2,12.2,0,0,1,26.5,25c.8.5.8.5-.2,1.8a9.8,9.8,0,0,0-1,1.7c-.1.2-.1.2,0,.2a7.1,7.1,0,0,1,.9-1.7c.3-.3.4-.8.9-.8s.4.2.3.5a13.4,13.4,0,0,0-2.3,7A3.1,3.1,0,0,1,23,36.9Z" fill="#1c1a1b"/><path d="M58.2,36.5A1.6,1.6,0,0,1,57,35c-.4-.9.1-1.9-.3-2.8-.8-2.5-1.5-5-3.5-6.8s0-1,.3-1.4.7-.1,1,.2a12.8,12.8,0,0,1,3.8,7.1c.4.9-.1,1.9.3,2.8a.3.3,0,0,1,.1.3c-.2,1.1-.6.2-.9.1a8.6,8.6,0,0,1-.2-2.4c.1.8-.2,1.6.2,2.3s.8.9.7,1.5A.9.9,0,0,1,58.2,36.5Z" fill="#1d1c1c"/><path d="M63,17.9v.9a20.8,20.8,0,0,0-13.1-2.2c-1,.1-1.7.2-1.9-.9s1-.8,1.6-1h.6a24.3,24.3,0,0,1,5.9,0h1c-.3,1.1-1.3.7-1.9.7H52.5c2.8.2,5.4,0,7.8.9l1.9.8A1.3,1.3,0,0,1,63,17.9Z" fill="#1a1919"/><path d="M60.6,16.7A77.4,77.4,0,0,0,52,15.4c1.9-.6,3.5.2,5-.6a11.4,11.4,0,0,1,5.2,1.5A1.1,1.1,0,0,1,60.6,16.7Z" fill="#252323"/><path d="M57.8,34.6c.3.1.6.4.8-.1l.9.8c1.3,1.3,1.6-.3,2.4-.8l.5,1.2A1.8,1.8,0,0,1,61,36.9c-.9-.2-2,.1-2.8-.8Z" fill="#242122"/><path d="M27.4,26.7c-.6-.6-.8.3-1.2.3s1.3-1.2.3-2c.6-.5.6-1.9,1.9-1.1s1,.9.2,1.6Z" fill="#262424"/><path d="M22.6,36.5l.4.3A2.9,2.9,0,0,1,19,35.3a1.5,1.5,0,0,1,0-.6c.3-.5.3-.1.4.1A2.9,2.9,0,0,0,22.6,36.5Z" fill="#161515"/><path d="M60.6,16.7l1.6-.4,2.1,1.1h-.5c-.5.6-1.1-.4-1.6,0A2.2,2.2,0,0,1,60.6,16.7Z" fill="#242122"/><path d="M56,14.7H50.1A12.3,12.3,0,0,1,56,14.7Z" fill="#252323"/><path d="M20.3,31.7l-.2,2.1c-.2-1.1-.6-2.1.1-3.2Z" fill="#0a0809"/><path d="M58.2,36.1l2.8.8a2.6,2.6,0,0,1-2.8-.4Q58.2,36.3,58.2,36.1Z" fill="#0e0d0e"/><path d="M63,34.7c.1-1.1-.4-2.2.3-3.3A8.5,8.5,0,0,1,63,34.7Z" fill="#242122"/><path d="M58.6,34.2c-.7-.9-.2-1.9-.3-2.8A5.1,5.1,0,0,1,58.6,34.2Z" fill="#242122"/><path d="M56.7,32.2c.7.9.3,1.9.3,2.8C56.4,34.1,56.7,33.1,56.7,32.2Z" fill="#242122"/><path d="M61.8,30.1c0,.7.3,1.4-.3,2.1A3.3,3.3,0,0,1,61.8,30.1Z" fill="#242122"/><path d="M66.6,21.7v-2A1.5,1.5,0,0,1,66.6,21.7Z" fill="#262425"/><path d="M62.5,30.3v2.2h-.2V30.3Z" fill="#242122"/><path d="M65.6,19.5a1.3,1.3,0,0,1-1.2-1C65.2,18.4,65.4,19,65.6,19.5Z" fill="#252323"/><path d="M64,24.9c.3.6,0,1-.4,1.5S63.6,25.4,64,24.9Z" fill="#242122"/><path d="M62.2,17.5c.5-.7,1.1.1,1.6,0s-.4.6-.8.4Z" fill="#252323"/><path d="M26.5,26.7l-1.4,2.8A2.8,2.8,0,0,1,26.5,26.7Z" fill="#262424"/><path d="M24.4,30.9a1.3,1.3,0,0,1,0,1.3A1.1,1.1,0,0,1,24.4,30.9Z" fill="#232021"/><path d="M55.5,26.6a3.7,3.7,0,0,1,1.4,2.8,6.2,6.2,0,0,1-1.4-2.8Z" fill="#242122"/><path d="M55.5,26.6a5,5,0,0,1-1.9-2.1c1.1.7,1.8,1.1,1.9,2.1Z" fill="#242122"/><path d="M57.7,34.7a4.1,4.1,0,0,1,0-2.8Z" fill="#242122"/><path d="M49.1,15.9c.9-.9,1.5-.8,2.2-.5S50.1,15.9,49.1,15.9Z" fill="#252323"/></svg>