<svg id="Layer_1" data-name="Layer 1" xmlns="http://www.w3.org/2000/svg" width="0.9in" height="1in" viewBox="0 0 66.6 70.8"><title>Artboard 4 copy 2</title><path d="M22,34.7c-.2,1-.8,1.8-1.8,1.7a1.7,1.7,0,0,1-1.7-1.8A1.6,1.6,0,0,1,20.3,33C21.3,33,21.9,33.7,22,34.7Z" fill="#262424"/><path d="M36.9,34.5c-.1,1.2-.7,1.9-1.7,1.9a1.6,1.6,0,0,1-1.8-1.7A1.6,1.6,0,0,1,35.1,33,1.7,1.7,0,0,1,36.9,34.5Z" fill="#252324"/><path d="M13.1,56.2l2.6-2.9-.3-.2c-1-.2-2.3.6-2.9-.8s2.3-3.3,2.8-3.4.8.4,1.1.7-.3.9-.2,1.5h.4c.9.2,2.1-.5,2.7.7s-.8,1.6-1.4,2.3a9.1,9.1,0,0,1-1.7,1.3l.3.5H25c0,.5-.3.5-.6.5h.7a.4.4,0,0,1,.3.5,2,2,0,0,1-1.6.4H15C14.1,57.4,13.2,57.3,13.1,56.2Z" fill="#262323"/><path d="M32.1,55.8h9l.3-.4-2.1-1.9c-.5-.5-1.3-.9-.9-1.8s1.2-.6,1.9-.6h1.2c-.7-.9-.7-1.6.3-2.1s1,.6,1.5.8a1.7,1.7,0,0,1,.6.5c.5.6,1.6,1,1.3,2s-1.5.6-2.3.7-1,0-.8.7,1.2,1.4,1.7,2.1.4,1.4-.5,1.4a81.4,81.4,0,0,1-11.2-.1,1.3,1.3,0,0,1-.8-.5C31.1,55.9,31.7,56,32.1,55.8Z" fill="#242021"/><path d="M32.9,48.3c-.6,1.4-2.1,1.1-3.2,1.6s-.2,1.3-1,1.5-.2-1.6-1.1-2h-.2c-.9-.4-2.5-.2-2.3-1.9s1.6-1.5,2.8-1.6a10.2,10.2,0,0,1,2.9.1C32,46.3,32.9,46.9,32.9,48.3Z" fill="#242021"/><path d="M31.3,56.2a2.3,2.3,0,0,0,1.9.8h9.5c.4,0,.9.1,1-.3s-.3-.7-.5-1-1.6-.7-1.2-1.9a28.7,28.7,0,0,1,2.3,2.1c.8.9.6,1.8-.7,1.9-3.7.1-7.4.1-11-.1a5.1,5.1,0,0,1-3.7-2.3c-.3-.2-.6-.4-.4-.8s.5-.3.8-.2a7.1,7.1,0,0,1,1.8,1.4Z" fill="#1d1c1c"/><path d="M13.1,56.2c.5.3.8.8,1.5.8H24.7c.2,0,.4-.2.7-.4s1.3-1.3,2,0a4.1,4.1,0,0,1-3,1.2H14.2C13.1,57.8,12.3,57.5,13.1,56.2Z" fill="#161516"/><path d="M32.9,48.3c-1.1-1.9-4.6-2.7-6.6-1.6-.4.2-.8.5-.8,1s.4.9,1,1.1,1.3.2,1.8.8l-.2.2h-.8c-1.3,0-2.5-.2-2.7-1.7s1.1-1.9,2.3-2.2a7.8,7.8,0,0,1,5,.3C32.7,46.3,33.8,46.9,32.9,48.3Z" fill="#201f20"/><path d="M28.1,49.4c.6.4.2,1.1.5,1.6s-.5-1.9,1.1-1.1c-.2,2.4.1,4.5,2.3,5.9a.8.8,0,0,1-.8.4,6.7,6.7,0,0,1-2.4-2.7c-.8.8-.7,2.6-2.5,2.3a.8.8,0,0,1,.1-.8L27.8,53c.5-1.1-.2-2.4.4-3.6Z" fill="#1d1b1c"/><path d="M26.6,55.8c1.4-.7,1.5-2.2,2.4-3.5a10.5,10.5,0,0,0,2.4,3.9c-.9,0-1.3-.9-1.9-1.3s-.6.1-.5.5l-1.6,1.2c-.7-.7-1.3.3-2,0h0C25.3,55.7,26,55.7,26.6,55.8Z" fill="#242021"/><path d="M26.6,55.8l-1.2.8H16.3v-.4h6.6c.7,0,1.5.2,2.1-.4l1.6-.9Z" fill="#0d0c0d"/><path d="M28.1,49.4c-.2,1.2.4,2.4-.4,3.6-.3-1.2.7-2.5-.6-3.5Z" fill="#242021"/><path d="M41.1,56.5H32.9v-.2h8.2Z" fill="#060505"/><path d="M44.8,19.8c1.4-.8,2.7-1.6,4.1-2.2s2.9,0,2.9,1.7c0,6.4-2,12-6.9,16.4-.5.5-.9.6-1.5,0s-.3-1.1.3-1.6c4.3-3.9,6-8.9,6.2-14.8-3.4,1.5-6.5,3.1-9,5.6-.5.6-.9,1.6-2,1.3a.5.5,0,0,1-.1-.3c0-.1,0-.2,0-.2A15.8,15.8,0,0,1,41,23.3l.6-.5a6.6,6.6,0,0,0,1.6-1.3C43.7,20.9,44.7,20.7,44.8,19.8Z" fill="#221f20"/><path d="M8,19.3c-.9.3-.5,1-.4,1.5a18.9,18.9,0,0,0,5.8,13c.5.5,1.4.8.5,1.8s-1.4,0-1.9-.5C7.6,31,5.7,25.7,5.6,19.6c0-2.1,1.3-2.9,3.1-2a29,29,0,0,1,6.2,3.7c-.1.5.5.7.4,1.2l-.5.3c-2.1-.9-3.8-2.5-5.9-3.4-.5-.3-1.1-.9-1.7-.3s0,1.2-.1,1.5a2.9,2.9,0,0,1,.1-1.6C7.6,18.8,7.9,18.7,8,19.3Z" fill="#232021"/><path d="M7.2,19.1c1.3-1,2.2.1,3.1.6s3.2,1.9,4.7,2.8a18.1,18.1,0,0,1,2.3,2,13.5,13.5,0,0,0-2.3-2c.2-.4-.8-.6-.1-1.2,1.7,1,2.9,2.7,4.5,4-.8,1.4-1.5,1.2-2.6.1-2.5-2.6-5.8-4.1-8.8-6l-.8-.3Z" fill="#212020"/><path d="M44.8,19.8c.6,1.6-1.1,1.3-1.6,2.1L41.7,23l-.4.4a8.7,8.7,0,0,0-2.4,2.4v.4c-.8-.3-1.2-.6-.4-1.5A25.2,25.2,0,0,1,44.8,19.8Z" fill="#212021"/><path d="M38.9,25.8a3.1,3.1,0,0,1,2.4-2.4A8.5,8.5,0,0,1,38.9,25.8Z" fill="#272324"/><path d="M41.7,23a1.9,1.9,0,0,1,1.6-1.2A1.9,1.9,0,0,1,41.7,23Z" fill="#272324"/><path d="M7.2,19.1v2.3c-.3-.8-.7-1.6,0-2.3Z" fill="#080607"/><path d="M15.8,22.8a8.9,8.9,0,0,1,2.3,2.3Z" fill="#232021"/></svg>