<svg id="Layer_1" data-name="Layer 1" xmlns="http://www.w3.org/2000/svg" width="0.9in" height="1.2in" viewBox="0 0 66.6 83"><title>Artboard 4 copy</title><path d="M27,40.7c-.2,1-.8,1.8-1.8,1.7a1.7,1.7,0,0,1-1.7-1.8A1.6,1.6,0,0,1,25.3,39C26.3,39,26.9,39.7,27,40.7Z" fill="#262424"/><path d="M41.9,40.5c-.1,1.2-.7,1.9-1.7,1.9a1.6,1.6,0,0,1-1.8-1.7A1.6,1.6,0,0,1,40.1,39,1.7,1.7,0,0,1,41.9,40.5Z" fill="#252324"/><path d="M38.6,61.5c.6-.1,1.6.5,2-.8H40a7.9,7.9,0,0,1-5.7-2.9v-.3s0,0,0,0-.9-.6-1.6.1-1.2,1.8-2.4,1.8-3.2,1.4-4.3-.8-1-.2-1.5,0-.2.9,0,1.2a3.8,3.8,0,0,0,3,2.3c1.1.1,1.3.4,1.4,1.5a4.5,4.5,0,0,0,3.9,4.3c2.3.3,3.8-.6,5-2.9a3,3,0,0,1-.1-1.1,1.1,1.1,0,0,0,.3.4c.1-1.3.5-2.4,2.1-2.4a1.3,1.3,0,0,0-1.4-.2h-.1c0,.1-.1.1-.1,0S38.4,61.5,38.6,61.5ZM33.7,66c-3-.7-4-3-2.3-5.5.3.2,1-.9,1.1.3s-.2,1.4,1,1.4.7-.9.9-1.5v-.4a2.3,2.3,0,0,1,1.7,2.4A3.3,3.3,0,0,1,33.7,66Z" fill="#242122"/><path d="M32.5,51.9c-.6-.7-1.2-1.4-1.9-2s-.8-1.3.3-1.7a6.8,6.8,0,0,1,2.3-.5c1.3,0,2.9,0,3.5,1.2s-1.2,1.5-1.8,2.3l-.7.7A1.7,1.7,0,0,1,32.5,51.9Z" fill="#242122"/><path d="M32.5,51.9c.6-.4,1.2,0,1.7,0v4.9a.8.8,0,0,1,0,.9c-.7-.9-1.1-.1-1.6.2s-.9,2.1-2.3,1.4C33.3,57.6,32.2,54.5,32.5,51.9Z" fill="#161415"/><path d="M34.2,57.7v-.9a9.1,9.1,0,0,0,3.5,3,2.3,2.3,0,0,0,2.4-.1c.6-.2.6.2.6.6l-.2.2C37.5,61.6,35.8,59.7,34.2,57.7Z" fill="#171516"/><path d="M39.9,61.8l-2-.2c1-.6,2.2.1,2.6-1.1h0c.6-.5.2-1.1.3-1.7s1.1-.6,1.5-.2-.2,1.1-.4,1.3S41,61.7,39.9,61.8Z" fill="#1f1e1f"/><path d="M40.8,58.8c1.3.9.4,1.3-.3,1.7a.8.8,0,0,0-.4-.8Z" fill="#242122"/><path d="M37.6,64.9c-.6-.8-.2-1.6,0-2.4l.2,1.7Z" fill="#060405"/><path d="M33.7,66c-1.8,0-3-.7-3.3-2.2s-.7-2.7,1-3.3C29.7,63,30.7,65.3,33.7,66Z" fill="#f3f2f2"/><path d="M34.1,66.4a3.7,3.7,0,0,1-4.2-2.7,5.5,5.5,0,0,1,0-2.3c.2-.6.5-1.5,1.5-.9-1.7,2.5-.7,4.8,2.3,5.5h.2C34,66.1,34.3,66.3,34.1,66.4Z" fill="#191718"/><path d="M47,29.1a20.9,20.9,0,0,1-.4,4.5c-.1.6.1,1.4-1.1,1.1s-1-.7-.9-1.6a26.8,26.8,0,0,0-1.3-13.8c-.2-.6-.3-1.5-1-1.5s-1,.8-1.3,1.4a39.6,39.6,0,0,0-3.7,10.2c-.1.6.1,1.7-1.2,1.5s-.8-1.3-.7-1.9a38.1,38.1,0,0,1,3.9-10.9c.7-1.2,1.5-2.5,3.1-2.4s2.1,1.6,2.6,2.9A30.6,30.6,0,0,1,47,29.1Z" fill="#242121"/><path d="M23.1,19.5l-.5-.8c-.3-.4-.6-1-1.2-.8s-.5.7-.6,1.1a27.1,27.1,0,0,0-1.5,14c.1.8.5,1.5-.8,1.7s-1-.8-1.1-1.3A30,30,0,0,1,19,18.1a2.6,2.6,0,0,1,.9-1.5c1.5-.3,2.9-.2,3.7,1.5S24.2,19.3,23.1,19.5Z" fill="#1c1a1b"/><path d="M23.1,19.5c.3-1.6-.6-2.8-2.1-2.4s-.7-.5-1.1-.5a1.1,1.1,0,0,1,.9-.7h1.6a4.4,4.4,0,0,1,2.3,2.5,41.3,41.3,0,0,1,3.9,10.9c.1.7.3,1.3-.7,1.5s-1.1-.2-1.2-1A43.7,43.7,0,0,0,23.1,19.5Z" fill="#242222"/><path d="M55.6,47.1c-.3.7-.1,1.9-1,2s-1.2-.5-1.2-1.6-1.3-1.5-2-2.3l-2.6-2.4c-.5-.4-.3-.8.1-1.1s.6-.9,1.1-.4a55.8,55.8,0,0,1,5.3,5.2A2.1,2.1,0,0,1,55.6,47.1Z" fill="#272425"/><path d="M56.1,57c0,.2,0,1.2-.7,1.3s-1.1-.6-1.2-1.5-2-2.4-3-3.7-1.3-.9-.3-1.8,1.3.1,1.8.5l2.6,2.6A3,3,0,0,1,56.1,57Z" fill="#242122"/><path d="M16.5,69.9c-1.2-1.8-1.3-3.2.2-4.4a17.5,17.5,0,0,0,1.8-1.8c.5-.6.9-.3,1.3.1s.8.7.2,1.2l-.7.7C17.8,66.7,17.5,68.4,16.5,69.9Z" fill="#252425"/><path d="M10.1,63.5a2.5,2.5,0,0,1,.8-2L14,58.3c.6-.7,1-.5,1.6,0s.1.9-.2,1.4-3.2,2.5-3.6,4.7c-.1.3-.6,1-1,.8S10.1,64.1,10.1,63.5Z" fill="#1e1d1d"/><path d="M7.8,56.8a3,3,0,0,1,.9-2.3c1-1,2.1-2,3-3.1s1-.5,1.6,0,.2.9-.2,1.4-3.3,2.4-3.5,4.7c0,.3-.5.9-1,.7S7.8,57.3,7.8,56.8Z" fill="#201f20"/><path d="M47.3,70.1a12,12,0,0,0-3.5-5.2c-.6-.5.3-.8.6-1.2s.6-.2.9.2l1.9,2C48.8,67.4,48.9,67.6,47.3,70.1Z" fill="#262525"/><path d="M52,63.2l-3.5-3.5c-.5-.5-.6-.9-.1-1.5s.9-.6,1.4,0,2.5,2.2,3.4,3.6S52.9,63.1,52,63.2Z" fill="#252223"/><path d="M10.2,46.8a2.7,2.7,0,0,1-.7,2.3s-.5-.2-.6-.4-.8-2.1,0-2.9,3.2-2.9,4.7-4.3c.9.5.8,1.1.2,1.7l-2.2,2.1c-.5.3-1.2.5-1.4,1.2S10.2,46.7,10.2,46.8Z" fill="#212020"/><path d="M11.3,45.2c.9-1.2,3.1-1.4,2.3-3.7.7-.8.9.2,1.3.4s.3.3.1.6-2.7,3.4-4.9,4.3h-.1C10,45.8,10.9,45.6,11.3,45.2Z" fill="#181717"/><path d="M52,63.2a3.1,3.1,0,0,0,1.2-1.3c1,1.2.7,2.3-.2,3.5C52.4,64.7,51.5,64.3,52,63.2Z" fill="#242323"/><path d="M22.4,15.9a1,1,0,0,1-1.6,0A1.3,1.3,0,0,1,22.4,15.9Z" fill="#040303"/><path d="M18,26.7v4.1h-.2V26.6Z" fill="#262223"/><path d="M18.1,25.3a4.2,4.2,0,0,1,.1-1c.5-.1.2.4.3.6a1.3,1.3,0,0,1-.1.5Z" fill="#262223"/><path d="M11.5,62.3A10,10,0,0,1,15,58.8Z" fill="#282425"/><path d="M11.6,53.1C10.8,54.6,9,55.3,8.7,57,8.5,54.8,10.3,54.1,11.6,53.1Z" fill="#282425"/><path d="M11.7,53.1c.1-.7.3-1,.9-1.1S12.1,52.9,11.7,53.1Z" fill="#282425"/><path d="M11.3,45.2l-1.2,1.6C9.6,45.5,10.5,45.4,11.3,45.2Z" fill="#252424"/></svg>