<svg xmlns="http://www.w3.org/2000/svg" width="86.4" height="1.2in" data-name="Layer 1" viewBox="0 0 66.6 83"><path fill="#fff" stroke="#fff" stroke-miterlimit="10" d="M27 40.7c-.2 1-.8 1.8-1.8 1.7a1.7 1.7 0 0 1-1.7-1.8 1.6 1.6 0 0 1 1.8-1.6c1 0 1.6.7 1.7 1.7zm14.9-.2c-.1 1.2-.7 1.9-1.7 1.9a1.6 1.6 0 0 1-1.8-1.7 1.6 1.6 0 0 1 1.7-1.7 1.7 1.7 0 0 1 1.8 1.5zm-3.3 21c.6-.1 1.6.5 2-.8H40a7.9 7.9 0 0 1-5.7-2.9v-.3s-.9-.6-1.6.1-1.2 1.8-2.4 1.8-3.2 1.4-4.3-.8-1-.2-1.5 0-.2.9 0 1.2a3.8 3.8 0 0 0 3 2.3c1.1.1 1.3.4 1.4 1.5a4.5 4.5 0 0 0 3.9 4.3c2.3.3 3.8-.6 5-2.9a3 3 0 0 1-.1-1.1 1.1 1.1 0 0 0 .3.4c.1-1.3.5-2.4 2.1-2.4a1.3 1.3 0 0 0-1.4-.2h-.1c0 .1-.1.1-.1 0s-.1-.2.1-.2zM33.7 66c-3-.7-4-3-2.3-5.5.3.2 1-.9 1.1.3s-.2 1.4 1 1.4.7-.9.9-1.5v-.4a2.3 2.3 0 0 1 1.7 2.4 3.3 3.3 0 0 1-2.4 3.3zm-1.2-14.1c-.6-.7-1.2-1.4-1.9-2s-.8-1.3.3-1.7a6.8 6.8 0 0 1 2.3-.5c1.3 0 2.9 0 3.5 1.2s-1.2 1.5-1.8 2.3l-.7.7a1.7 1.7 0 0 1-1.7 0z"/><path fill="#fff" stroke="#fff" stroke-miterlimit="10" d="M32.5 51.9c.6-.4 1.2 0 1.7 0v4.9a.8.8 0 0 1 0 .9c-.7-.9-1.1-.1-1.6.2s-.9 2.1-2.3 1.4c3-1.7 1.9-4.8 2.2-7.4z"/><path fill="#fff" stroke="#fff" stroke-miterlimit="10" d="M34.2 57.7v-.9a9.1 9.1 0 0 0 3.5 3 2.3 2.3 0 0 0 2.4-.1c.6-.2.6.2.6.6l-.2.2c-3 1.1-4.7-.8-6.3-2.8z"/><path fill="#fff" stroke="#fff" stroke-miterlimit="10" d="M39.9 61.8l-2-.2c1-.6 2.2.1 2.6-1.1.6-.5.2-1.1.3-1.7s1.1-.6 1.5-.2-.2 1.1-.4 1.3-.9 1.8-2 1.9z"/><path fill="#fff" stroke="#fff" stroke-miterlimit="10" d="M40.8 58.8c1.3.9.4 1.3-.3 1.7a.8.8 0 0 0-.4-.8zm-3.2 6.1c-.6-.8-.2-1.6 0-2.4l.2 1.7zM33.7 66c-1.8 0-3-.7-3.3-2.2s-.7-2.7 1-3.3c-1.7 2.5-.7 4.8 2.3 5.5z"/><path fill="#fff" stroke="#fff" stroke-miterlimit="10" d="M34.1 66.4a3.7 3.7 0 0 1-4.2-2.7 5.5 5.5 0 0 1 0-2.3c.2-.6.5-1.5 1.5-.9-1.7 2.5-.7 4.8 2.3 5.5h.2c.1.1.4.3.2.4zM47 29.1a20.9 20.9 0 0 1-.4 4.5c-.1.6.1 1.4-1.1 1.1s-1-.7-.9-1.6a26.8 26.8 0 0 0-1.3-13.8c-.2-.6-.3-1.5-1-1.5s-1 .8-1.3 1.4a39.6 39.6 0 0 0-3.7 10.2c-.1.6.1 1.7-1.2 1.5s-.8-1.3-.7-1.9a38.1 38.1 0 0 1 3.9-10.9c.7-1.2 1.5-2.5 3.1-2.4s2.1 1.6 2.6 2.9a30.6 30.6 0 0 1 2 10.5zm-23.9-9.6l-.5-.8c-.3-.4-.6-1-1.2-.8s-.5.7-.6 1.1a27.1 27.1 0 0 0-1.5 14c.1.8.5 1.5-.8 1.7s-1-.8-1.1-1.3A30 30 0 0 1 19 18.1a2.6 2.6 0 0 1 .9-1.5c1.5-.3 2.9-.2 3.7 1.5s.6 1.2-.5 1.4z"/><path fill="#fff" stroke="#fff" stroke-miterlimit="10" d="M23.1 19.5c.3-1.6-.6-2.8-2.1-2.4s-.7-.5-1.1-.5a1.1 1.1 0 0 1 .9-.7h1.6a4.4 4.4 0 0 1 2.3 2.5 41.3 41.3 0 0 1 3.9 10.9c.1.7.3 1.3-.7 1.5s-1.1-.2-1.2-1a43.7 43.7 0 0 0-3.6-10.3zm32.5 27.6c-.3.7-.1 1.9-1 2s-1.2-.5-1.2-1.6-1.3-1.5-2-2.3l-2.6-2.4c-.5-.4-.3-.8.1-1.1s.6-.9 1.1-.4a55.8 55.8 0 0 1 5.3 5.2 2.1 2.1 0 0 1 .3.6zm.5 9.9c0 .2 0 1.2-.7 1.3s-1.1-.6-1.2-1.5-2-2.4-3-3.7-1.3-.9-.3-1.8 1.3.1 1.8.5l2.6 2.6a3 3 0 0 1 .8 2.6zM16.5 69.9c-1.2-1.8-1.3-3.2.2-4.4a17.5 17.5 0 0 0 1.8-1.8c.5-.6.9-.3 1.3.1s.8.7.2 1.2l-.7.7c-1.5 1-1.8 2.7-2.8 4.2zm-6.4-6.4a2.5 2.5 0 0 1 .8-2l3.1-3.2c.6-.7 1-.5 1.6 0s.1.9-.2 1.4-3.2 2.5-3.6 4.7c-.1.3-.6 1-1 .8s-.7-1.1-.7-1.7zm-2.3-6.7a3 3 0 0 1 .9-2.3c1-1 2.1-2 3-3.1s1-.5 1.6 0 .2.9-.2 1.4-3.3 2.4-3.5 4.7c0 .3-.5.9-1 .7s-.8-.9-.8-1.4zm39.5 13.3a12 12 0 0 0-3.5-5.2c-.6-.5.3-.8.6-1.2s.6-.2.9.2l1.9 2c1.6 1.5 1.7 1.7.1 4.2zm4.7-6.9l-3.5-3.5c-.5-.5-.6-.9-.1-1.5s.9-.6 1.4 0 2.5 2.2 3.4 3.6-.3 1.3-1.2 1.4zM10.2 46.8a2.7 2.7 0 0 1-.7 2.3s-.5-.2-.6-.4-.8-2.1 0-2.9 3.2-2.9 4.7-4.3c.9.5.8 1.1.2 1.7l-2.2 2.1c-.5.3-1.2.5-1.4 1.2s0 .2 0 .3z"/><path fill="#fff" stroke="#fff" stroke-miterlimit="10" d="M11.3 45.2c.9-1.2 3.1-1.4 2.3-3.7.7-.8.9.2 1.3.4s.3.3.1.6-2.7 3.4-4.9 4.3H10c0-1 .9-1.2 1.3-1.6zm40.7 18a3.1 3.1 0 0 0 1.2-1.3c1 1.2.7 2.3-.2 3.5-.6-.7-1.5-1.1-1-2.2zM22.4 15.9a1 1 0 0 1-1.6 0 1.3 1.3 0 0 1 1.6 0zM18 26.7v4.1h-.2v-4.2zm.1-1.4a4.2 4.2 0 0 1 .1-1c.5-.1.2.4.3.6a1.3 1.3 0 0 1-.1.5zm-6.6 37a10 10 0 0 1 3.5-3.5zm.1-9.2c-.8 1.5-2.6 2.2-2.9 3.9-.2-2.2 1.6-2.9 2.9-3.9zm.1 0c.1-.7.3-1 .9-1.1s-.5.9-.9 1.1z"/><path fill="#fff" stroke="#fff" stroke-miterlimit="10" d="M11.3 45.2l-1.2 1.6c-.5-1.3.4-1.4 1.2-1.6z"/></svg>