<svg xmlns="http://www.w3.org/2000/svg"><symbol id="icon-b-1" viewBox="0 0 66.6 70.8"><path fill="#262424" d="M22 34.7c-.2 1-.8 1.8-1.8 1.7a1.7 1.7 0 0 1-1.7-1.8 1.6 1.6 0 0 1 1.8-1.6c1 0 1.6.7 1.7 1.7z"/><path fill="#252324" d="M36.9 34.5c-.1 1.2-.7 1.9-1.7 1.9a1.6 1.6 0 0 1-1.8-1.7 1.6 1.6 0 0 1 1.7-1.7 1.7 1.7 0 0 1 1.8 1.5z"/><path fill="#262323" d="M13.1 56.2l2.6-2.9-.3-.2c-1-.2-2.3.6-2.9-.8s2.3-3.3 2.8-3.4.8.4 1.1.7-.3.9-.2 1.5h.4c.9.2 2.1-.5 2.7.7s-.8 1.6-1.4 2.3a9.1 9.1 0 0 1-1.7 1.3l.3.5H25c0 .5-.3.5-.6.5h.7a.4.4 0 0 1 .3.5 2 2 0 0 1-1.6.4H15c-.9.1-1.8 0-1.9-1.1z"/><path fill="#242021" d="M32.1 55.8h9l.3-.4-2.1-1.9c-.5-.5-1.3-.9-.9-1.8s1.2-.6 1.9-.6h1.2c-.7-.9-.7-1.6.3-2.1s1 .6 1.5.8a1.7 1.7 0 0 1 .6.5c.5.6 1.6 1 1.3 2s-1.5.6-2.3.7-1 0-.8.7 1.2 1.4 1.7 2.1.4 1.4-.5 1.4a81.4 81.4 0 0 1-11.2-.1 1.3 1.3 0 0 1-.8-.5c-.2-.7.4-.6.8-.8zm.8-7.5c-.6 1.4-2.1 1.1-3.2 1.6s-.2 1.3-1 1.5-.2-1.6-1.1-2h-.2c-.9-.4-2.5-.2-2.3-1.9s1.6-1.5 2.8-1.6a10.2 10.2 0 0 1 2.9.1c1.2.3 2.1.9 2.1 2.3z"/><path fill="#1d1c1c" d="M31.3 56.2a2.3 2.3 0 0 0 1.9.8h9.5c.4 0 .9.1 1-.3s-.3-.7-.5-1-1.6-.7-1.2-1.9a28.7 28.7 0 0 1 2.3 2.1c.8.9.6 1.8-.7 1.9-3.7.1-7.4.1-11-.1a5.1 5.1 0 0 1-3.7-2.3c-.3-.2-.6-.4-.4-.8s.5-.3.8-.2a7.1 7.1 0 0 1 1.8 1.4z"/><path fill="#161516" d="M13.1 56.2c.5.3.8.8 1.5.8h10.1c.2 0 .4-.2.7-.4s1.3-1.3 2 0a4.1 4.1 0 0 1-3 1.2H14.2c-1.1 0-1.9-.3-1.1-1.6z"/><path fill="#201f20" d="M32.9 48.3c-1.1-1.9-4.6-2.7-6.6-1.6-.4.2-.8.5-.8 1s.4.9 1 1.1 1.3.2 1.8.8l-.2.2h-.8c-1.3 0-2.5-.2-2.7-1.7s1.1-1.9 2.3-2.2a7.8 7.8 0 0 1 5 .3c.8.1 1.9.7 1 2.1z"/><path fill="#1d1b1c" d="M28.1 49.4c.6.4.2 1.1.5 1.6s-.5-1.9 1.1-1.1c-.2 2.4.1 4.5 2.3 5.9a.8.8 0 0 1-.8.4 6.7 6.7 0 0 1-2.4-2.7c-.8.8-.7 2.6-2.5 2.3a.8.8 0 0 1 .1-.8l1.4-2c.5-1.1-.2-2.4.4-3.6z"/><path fill="#242021" d="M26.6 55.8c1.4-.7 1.5-2.2 2.4-3.5a10.5 10.5 0 0 0 2.4 3.9c-.9 0-1.3-.9-1.9-1.3s-.6.1-.5.5l-1.6 1.2c-.7-.7-1.3.3-2 0-.1-.9.6-.9 1.2-.8z"/><path fill="#0d0c0d" d="M26.6 55.8l-1.2.8h-9.1v-.4h6.6c.7 0 1.5.2 2.1-.4l1.6-.9z"/><path fill="#242021" d="M28.1 49.4c-.2 1.2.4 2.4-.4 3.6-.3-1.2.7-2.5-.6-3.5z"/><path fill="#060505" d="M41.1 56.5h-8.2v-.2h8.2z"/><path fill="#221f20" d="M44.8 19.8c1.4-.8 2.7-1.6 4.1-2.2s2.9 0 2.9 1.7c0 6.4-2 12-6.9 16.4-.5.5-.9.6-1.5 0s-.3-1.1.3-1.6c4.3-3.9 6-8.9 6.2-14.8-3.4 1.5-6.5 3.1-9 5.6-.5.6-.9 1.6-2 1.3a.5.5 0 0 1-.1-.3v-.2a15.8 15.8 0 0 1 2.2-2.4l.6-.5a6.6 6.6 0 0 0 1.6-1.3c.5-.6 1.5-.8 1.6-1.7z"/><path fill="#232021" d="M8 19.3c-.9.3-.5 1-.4 1.5a18.9 18.9 0 0 0 5.8 13c.5.5 1.4.8.5 1.8s-1.4 0-1.9-.5C7.6 31 5.7 25.7 5.6 19.6c0-2.1 1.3-2.9 3.1-2a29 29 0 0 1 6.2 3.7c-.1.5.5.7.4 1.2l-.5.3c-2.1-.9-3.8-2.5-5.9-3.4-.5-.3-1.1-.9-1.7-.3s0 1.2-.1 1.5a2.9 2.9 0 0 1 .1-1.6c.4-.2.7-.3.8.3z"/><path fill="#212020" d="M7.2 19.1c1.3-1 2.2.1 3.1.6s3.2 1.9 4.7 2.8a18.1 18.1 0 0 1 2.3 2 13.5 13.5 0 0 0-2.3-2c.2-.4-.8-.6-.1-1.2 1.7 1 2.9 2.7 4.5 4-.8 1.4-1.5 1.2-2.6.1-2.5-2.6-5.8-4.1-8.8-6l-.8-.3z"/><path fill="#212021" d="M44.8 19.8c.6 1.6-1.1 1.3-1.6 2.1L41.7 23l-.4.4a8.7 8.7 0 0 0-2.4 2.4v.4c-.8-.3-1.2-.6-.4-1.5a25.2 25.2 0 0 1 6.3-4.9z"/><path fill="#272324" d="M38.9 25.8a3.1 3.1 0 0 1 2.4-2.4 8.5 8.5 0 0 1-2.4 2.4zm2.8-2.8a1.9 1.9 0 0 1 1.6-1.2 1.9 1.9 0 0 1-1.6 1.2z"/><path fill="#080607" d="M7.2 19.1v2.3c-.3-.8-.7-1.6 0-2.3z"/><path fill="#232021" d="M15.8 22.8a8.9 8.9 0 0 1 2.3 2.3z"/></symbol><symbol id="icon-b-3" viewBox="0 0 69.5 91.7"><path fill="#09090a" d="M46.2 52.5c0-2 .1-4.1 0-6.1s.1-1.4 1.1-1.4.9.8.9 1.4a100.5 100.5 0 0 1-.1 11.5c-.3 3.3 1.9 6.1 4.9 6.4a5.6 5.6 0 0 0 6-5.5c.3-4.4-.9-8.5-2.2-12.5s-3.6-9-4.7-13.8a14.1 14.1 0 0 1-.3-3.1c0-1.5-.5-2.8-2-3.2s-.8-1.2-.6-1.7.9-.2 1.3-.1 3.1 1.8 3.1 3.7c.1 5.3 2.3 10 4 14.8s3.5 9.9 3.4 15.4-4.9 9.2-9.7 7.6a7.5 7.5 0 0 1-5.1-7.8c.1-1.8.2-3.7.3-5.5z"/><path fill="#080809" d="M22.7 53c.1 1.8.2 3.6.3 5.3a7.5 7.5 0 0 1-6.7 7.9 7.5 7.5 0 0 1-8-6.8c-.6-4.8.8-9.3 2.2-13.7s3.5-8.8 4.6-13.4a17.9 17.9 0 0 0 .4-3.7 4.5 4.5 0 0 1 3.3-4.4c.4-.1 1.1-.6 1.3.2s.5 1.3-.5 1.6-2.2 1.8-2.2 3.5-1.1 5.9-2.1 8.8c-1.8 5-3.9 9.9-4.8 15.2a16.7 16.7 0 0 0-.2 6.1 5.6 5.6 0 0 0 5.9 4.7 5.5 5.5 0 0 0 4.8-5.8 116.5 116.5 0 0 1 0-11.9c0-.6-.5-1.7.9-1.7s1 1.1 1 1.9v6.1z"/><path fill="#2a2829" d="M41.3 34a1.7 1.7 0 0 1 1.6 1.8 1.6 1.6 0 0 1-1.8 1.7 1.7 1.7 0 0 1-1.7-1.8 1.7 1.7 0 0 1 1.9-1.7z"/><path fill="#242122" d="M26.4 37.6c-1-.1-1.7-.6-1.7-1.7a1.6 1.6 0 0 1 1.6-1.8 1.6 1.6 0 0 1 1.7 1.6c.1 1.1-.6 1.6-1.6 1.9z"/><path fill="#242121" d="M37.7 69.5l1.2 1.7c.1.9-.3 1.3-1.1.8a2.1 2.1 0 0 1-1.3-2c.4-2.7-.6-5-2-7.1a5.3 5.3 0 0 1-.5-1.5c0-.1 0-.3-.2-.2s0 .2-.2.3h-.4c-.9 2.1-2.8 3.7-2.8 6.2a13.5 13.5 0 0 1 0 2.4 3.6 3.6 0 0 1-3.3 3.2 3.5 3.5 0 0 1-3.8-2.2c-.2-.4-.7-1 0-1.4s1.3-.4 1.7.4 1.2 1.6 2.4 1.2 1.2-1.5 1.1-2.5a7.8 7.8 0 0 1 1.4-5.3c1.9-2.9 2.4-6.3 2.3-9.8a1.5 1.5 0 0 0-.9-1.3c-1.4-.9-1-2.1-.1-3.2a2.5 2.5 0 0 1 3.8 0c.9 1.1 1.3 2.3-.1 3.2s-.8 1-.8 1.7a19.6 19.6 0 0 0 3.4 11.5 8.9 8.9 0 0 0 .2 3.9z"/><path fill="#201e1f" d="M33.6 61.5c0-.6-.9-.3-.8-.9s.3-.3.4-.3.8.5.9.9c1 2.9 3.5 5.2 2.7 8.7-.2.9.6 1.6 1.3 2s.3-.6.7-.7h1.4c1.2.3 1.4-.9 2.1-1.3a.7.7 0 0 1 .8.2c-1.4 2.8-2.8 3.7-4.9 2.9s-2.3-1.6-2.2-3a12.1 12.1 0 0 0-2.1-7.4 4.1 4.1 0 0 1-.3-1.1z"/><path fill="#242121" d="M42.3 70.1c-.8 1.9-1.2 2.1-2.1 1.1l1.3-1.5z"/><path fill="#040304" d="M37.7 69.5c-.1.2-.4.5-.4.4s-.4-3.1.3-4.6a12.2 12.2 0 0 1 .1 4.2z"/><path fill="#070606" d="M42.3 70.1c-.4.2-.8.3-.8-.4s1.3-.7 1.6.4z"/></symbol><symbol id="icon-b-5" viewBox="0 0 71.7 61.1"><path fill="#262424" d="M30.2 29.6c-.2 1-.8 1.8-1.8 1.7a1.7 1.7 0 0 1-1.7-1.8 1.6 1.6 0 0 1 1.8-1.7c1 .1 1.5.8 1.7 1.8z"/><path fill="#252324" d="M45.1 29.4c-.1 1.2-.7 1.9-1.7 1.9a1.6 1.6 0 0 1-1.8-1.7 1.6 1.6 0 0 1 1.6-1.8 1.7 1.7 0 0 1 1.9 1.6z"/><path fill="#222121" d="M38.5 39.6l-.7.6c-1.3.7-.6 1.9-.6 2.9a1.3 1.3 0 0 1-.1.6c-.4.5-1 .5-1.5.7s-1.1.1-1.4.6a1 1 0 0 1-.7.8 2.7 2.7 0 0 0-1.6.8c-.7.6-1.6 0-2.4.3-2.4-.9-3.2-3.1-4.1-5.2s.2-.8.6-.9 1-.4 1.3.4a9.3 9.3 0 0 0 1.5 2.8l.8.8c.6.5 1.6.7 1.9 0s4.1-.6 3.7-3.4a1 1 0 0 0-.6-.9 2 2 0 0 1-.7-3.2c1.1-1.5 2.4-1.1 3.7-.4a3.8 3.8 0 0 1 .8.8 2.4 2.4 0 0 1 .1 1.9z"/><path fill="#1e1d1e" d="M36.9 43.7v-.4a1 1 0 0 1 1.2 0 2.8 2.8 0 0 1 1.8.8c2 1.5 2.6 1.4 4.1-.7a12.1 12.1 0 0 0 1.1-2.1c.2-.4 0-1.1.8-.8s1.1.2.9 1a7.9 7.9 0 0 1-3.1 4.9 3.2 3.2 0 0 1-4.4-.3c-1.5-1.5-3.3-1.4-5.2-1.2.2-.5.7-.6 1.2-.9s1.1.2 1.6-.3z"/><path fill="#0c0b0c" d="M29.4 46.9c.6-.8 1.8.1 2.4-.7s.8-.3.8.4a2.8 2.8 0 0 1-3.2.3z"/><path fill="#252223" d="M38.1 43.3h-1.2c.4-1-1-2.5.9-3.1-1 1.1-1.1 2.2.3 3.1zm-5.6 3.2a.8.8 0 0 0-.8-.4 1.1 1.1 0 0 1 1.7-.4 1.2 1.2 0 0 1-.9.8zm6-6.9v-1.9a1.3 1.3 0 0 1 0 1.9zm-1.6 4.1c-.3.9-1.1.2-1.6.4s1-.3 1.6-.4z"/><path fill="#262324" d="M40.4 46.1l-2-1.4c1.4-.3 1.6.6 2 1.4z"/><path fill="#1c1b1b" d="M20.9 19.6c-.4 1-1.4 1.2-2.1 1.8s-1.7 2.7-.7 4.3a5.5 5.5 0 0 1 .4.9c.1 1.1.2 2 1.5.9a.7.7 0 0 0 .2-.6c-.1.3-.1.6-.5.6s-.2-.9-.1-1.3a8.7 8.7 0 0 1 3.5-5.5c.5.7.5.7-.1 1.5s-1.1 1-.6 1.9L21 27.7c-.3.9-.6 1.8-1.8 1.9s-1.6-.8-2.1-1.6c-2.6-4-2.1-6.6 2-9.2a32.5 32.5 0 0 1 6.4-3c.9-.3 1.3-.1 1.6.6s-.3.9-.9 1.2l-5.4 2.2c-.4-.8-.8-.1-1.2 0s-1.6 1.4-2.5 2.1c1.3-.9 1.8-2.7 3.8-2.3z"/><path fill="#242122" d="M54.9 20.1c2.8 2.2 3 4.2.5 8-.6 0-.9.5-1.2.9a.9.9 0 0 1-1.2 0 1.3 1.3 0 0 1-.6-1.3c.1-.6.6-.6 1.1-.5 2.3-2 2.4-3.9.2-5.8L52 20.1c0-.7.1-1.3 1.1-.9s1 .9 1.8.9z"/><path fill="#1e1c1d" d="M53.3 27.1c-.6.3-1.2.6-.5 1.4s.8.5 1.3 0 .5-1.1 1.2-.5c-2.1 2.3-2.9 2.2-3.9-.8s-1.5-4-3.3-5.2-.3-1.1 0-1.6.9-.2 1.2.1a10.9 10.9 0 0 1 4 6.6z"/><path fill="#1f1e1e" d="M54.9 20.1c-.8.7-1.2-.3-1.6-.5s-.9.2-1.2.5L46 17.5c-.8-.3-.6-.8-.5-1.4s.8-.6 1.3-.4c2.8 1.1 5.7 2.2 8.1 4.4z"/><path fill="#262324" d="M22.4 24.1c-.8-.4-.8-.8-.3-1.6s1.5-.7 1-1.7.7-1.3 1.4-.3.7 1.1-.2 1.7a13 13 0 0 0-1.9 1.9zm-2.8 2.1c.1.5 0 1 .4 1.3-.2.7-.2 1.7-1.4 1.1s-.7-1.3-.1-2c.7 1 .7-.2 1.1-.4zm1.3-6.6c-2.1.2-2.9 2.1-4.2 3.2.3-1.5 2.6-3.8 4-3.9s.1.5.2.7zm-3.8 6.5a1.5 1.5 0 0 1-.6-1.5 1.3 1.3 0 0 1 .6 1.5zm2.9 1.4a1.8 1.8 0 0 1 .6-1.7 1.6 1.6 0 0 1-.6 1.7z"/><path fill="#272424" d="M48.6 21.3a4.1 4.1 0 0 1 2.7 3.1z"/></symbol><symbol id="icon-b-6" viewBox="0 0 71.7 67.6"><path fill="#2a2829" d="M44 30.9a1.7 1.7 0 0 1 1.6 1.8 1.6 1.6 0 0 1-1.8 1.7 1.7 1.7 0 0 1-1.7-1.8 1.7 1.7 0 0 1 1.9-1.7z"/><path fill="#242122" d="M29.1 34.5c-1-.1-1.7-.6-1.7-1.7a1.6 1.6 0 0 1 1.5-1.8 1.6 1.6 0 0 1 1.8 1.6c.1 1.1-.6 1.6-1.6 1.9z"/><path fill="#242021" d="M30 52.8c-2-.6-1.9-2.6-2.7-4s.3-.7.7-.8.7-.3.9.3a10 10 0 0 0 .8 1.7c.8 1.7 1.4 1.8 2.9.5s.8-.9 1.2-1c2.1-.5 2.4-1.9 2.3-3.8s.4-3.4-1.4-4.7a7.9 7.9 0 0 1-1.2-1.3 5.4 5.4 0 0 1 7.1 0c-.8 1.5-2.3 2.3-2.7 4.3-.7 4 2 5.3 4.3 7s1.5 0 1.9-.8a20.2 20.2 0 0 0 .9-2c.2-.6.7-.5 1.1-.3s.8.5.6 1-1 3.2-2.8 3.9-2.8-.3-4-1.4-3.7-1.6-5.7 0l-1.7 1.2a4.1 4.1 0 0 1-2.5.2z"/><path fill="#242223" d="M30 52.8h2.5a2 2 0 0 1-2.5 0z"/><path fill="#141213" d="M36.7 42.9v5.4h-.1V43z"/><path fill="#242122" d="M12.1 32.2c-2.6-.9-2.6-4.5-.9-6.1s3.3-3.4 5.1-5a8.3 8.3 0 0 1 11.6-.2L30 23c.6.5.4.9-.1 1.4s-.9.4-1.4-.1l-2-2a6.3 6.3 0 0 0-8.7-.1c-1.7 1.6-3.3 3.4-5.1 5a2.7 2.7 0 0 0-.7 2.5c-.2.5.2.7.5.9s.4 1.3-.4 1.6z"/><path fill="#232122" d="M56 21.8c-2.8-1.8-5.5-1.4-8.3.1-.4.2-.9.4-1.2-.1s.1-.6.3-.8l.9-1.1a8.1 8.1 0 0 1 10 .9c1.9 1.7 3.7 3.6 5.4 5.4s1.6 3.5 0 5.2c-.8-.2-.5-.7-.3-1.2a2.1 2.1 0 0 0 0-2c-2.2-2.2-4.1-4.7-6.8-6.4z"/><path fill="#252223" d="M63.1 27.9c1.3 1.2-.5 2.4-.1 3.6s-2.5 1.5-4 .9l-2.5-1.1c-1.2-.6-2.3-.7-3 .7s-.9.7-1.5.2-.4-.9 0-1.4 2.5-2.2 4.8-1.4a14.1 14.1 0 0 1 2.4 1 2.2 2.2 0 0 0 3.1-.6c.9-.4.1-1.5.8-1.9z"/><path fill="#201e1f" d="M12.1 32.2c.2-.4 1.2-.7.2-1.3s-.7-.6-.2-1.1c.8 1.3 1.9.9 2.9.4a28.8 28.8 0 0 1 3.3-1.2 3.8 3.8 0 0 1 4.3 2c.4.6 0 .8-.4 1.1s-.8.8-1.3.1-2.9-1.2-4.5-.5-2.7 1.6-4.3.5z"/><path fill="#151313" d="M63.1 27.9c-.3.6.8 1.9-.9 1.8a2.6 2.6 0 0 0-1-2.6L56 21.8c.9-.6 1.1.3 1.6.7z"/><path fill="#141313" d="M47.7 20a1.8 1.8 0 0 1-.6 1.2c-.9 1.1.3.6.6.8l-1.2 1.2c-.9-.1-1.2.3-1.2 1.2s-.6.5-1 .1-.9-.6-.3-1.2 2.3-2.5 3.7-3.3z"/><path fill="#232122" d="M45.4 24.3c-1.1-.5-.5-1 0-1.4s1-.8 1.2.3z"/><path fill="#242122" d="M14.1 31.7a4.4 4.4 0 0 1 2.9-1.1c-1.2.7-1.8 1.2-2.9 1.1z"/></symbol><symbol id="icon-b-2" viewBox="0 0 66.6 83"><path fill="#262424" d="M27 40.7c-.2 1-.8 1.8-1.8 1.7a1.7 1.7 0 0 1-1.7-1.8 1.6 1.6 0 0 1 1.8-1.6c1 0 1.6.7 1.7 1.7z"/><path fill="#252324" d="M41.9 40.5c-.1 1.2-.7 1.9-1.7 1.9a1.6 1.6 0 0 1-1.8-1.7 1.6 1.6 0 0 1 1.7-1.7 1.7 1.7 0 0 1 1.8 1.5z"/><path fill="#242122" d="M38.6 61.5c.6-.1 1.6.5 2-.8H40a7.9 7.9 0 0 1-5.7-2.9v-.3s-.9-.6-1.6.1-1.2 1.8-2.4 1.8-3.2 1.4-4.3-.8-1-.2-1.5 0-.2.9 0 1.2a3.8 3.8 0 0 0 3 2.3c1.1.1 1.3.4 1.4 1.5a4.5 4.5 0 0 0 3.9 4.3c2.3.3 3.8-.6 5-2.9a3 3 0 0 1-.1-1.1 1.1 1.1 0 0 0 .3.4c.1-1.3.5-2.4 2.1-2.4a1.3 1.3 0 0 0-1.4-.2h-.1c0 .1-.1.1-.1 0s-.1-.2.1-.2zM33.7 66c-3-.7-4-3-2.3-5.5.3.2 1-.9 1.1.3s-.2 1.4 1 1.4.7-.9.9-1.5v-.4a2.3 2.3 0 0 1 1.7 2.4 3.3 3.3 0 0 1-2.4 3.3zm-1.2-14.1c-.6-.7-1.2-1.4-1.9-2s-.8-1.3.3-1.7a6.8 6.8 0 0 1 2.3-.5c1.3 0 2.9 0 3.5 1.2s-1.2 1.5-1.8 2.3l-.7.7a1.7 1.7 0 0 1-1.7 0z"/><path fill="#161415" d="M32.5 51.9c.6-.4 1.2 0 1.7 0v4.9a.8.8 0 0 1 0 .9c-.7-.9-1.1-.1-1.6.2s-.9 2.1-2.3 1.4c3-1.7 1.9-4.8 2.2-7.4z"/><path fill="#171516" d="M34.2 57.7v-.9a9.1 9.1 0 0 0 3.5 3 2.3 2.3 0 0 0 2.4-.1c.6-.2.6.2.6.6l-.2.2c-3 1.1-4.7-.8-6.3-2.8z"/><path fill="#1f1e1f" d="M39.9 61.8l-2-.2c1-.6 2.2.1 2.6-1.1.6-.5.2-1.1.3-1.7s1.1-.6 1.5-.2-.2 1.1-.4 1.3-.9 1.8-2 1.9z"/><path fill="#242122" d="M40.8 58.8c1.3.9.4 1.3-.3 1.7a.8.8 0 0 0-.4-.8z"/><path fill="#060405" d="M37.6 64.9c-.6-.8-.2-1.6 0-2.4l.2 1.7z"/><path fill="#f3f2f2" d="M33.7 66c-1.8 0-3-.7-3.3-2.2s-.7-2.7 1-3.3c-1.7 2.5-.7 4.8 2.3 5.5z"/><path fill="#191718" d="M34.1 66.4a3.7 3.7 0 0 1-4.2-2.7 5.5 5.5 0 0 1 0-2.3c.2-.6.5-1.5 1.5-.9-1.7 2.5-.7 4.8 2.3 5.5h.2c.1.1.4.3.2.4z"/><path fill="#242121" d="M47 29.1a20.9 20.9 0 0 1-.4 4.5c-.1.6.1 1.4-1.1 1.1s-1-.7-.9-1.6a26.8 26.8 0 0 0-1.3-13.8c-.2-.6-.3-1.5-1-1.5s-1 .8-1.3 1.4a39.6 39.6 0 0 0-3.7 10.2c-.1.6.1 1.7-1.2 1.5s-.8-1.3-.7-1.9a38.1 38.1 0 0 1 3.9-10.9c.7-1.2 1.5-2.5 3.1-2.4s2.1 1.6 2.6 2.9a30.6 30.6 0 0 1 2 10.5z"/><path fill="#1c1a1b" d="M23.1 19.5l-.5-.8c-.3-.4-.6-1-1.2-.8s-.5.7-.6 1.1a27.1 27.1 0 0 0-1.5 14c.1.8.5 1.5-.8 1.7s-1-.8-1.1-1.3A30 30 0 0 1 19 18.1a2.6 2.6 0 0 1 .9-1.5c1.5-.3 2.9-.2 3.7 1.5s.6 1.2-.5 1.4z"/><path fill="#242222" d="M23.1 19.5c.3-1.6-.6-2.8-2.1-2.4s-.7-.5-1.1-.5a1.1 1.1 0 0 1 .9-.7h1.6a4.4 4.4 0 0 1 2.3 2.5 41.3 41.3 0 0 1 3.9 10.9c.1.7.3 1.3-.7 1.5s-1.1-.2-1.2-1a43.7 43.7 0 0 0-3.6-10.3z"/><path fill="#272425" d="M55.6 47.1c-.3.7-.1 1.9-1 2s-1.2-.5-1.2-1.6-1.3-1.5-2-2.3l-2.6-2.4c-.5-.4-.3-.8.1-1.1s.6-.9 1.1-.4a55.8 55.8 0 0 1 5.3 5.2 2.1 2.1 0 0 1 .3.6z"/><path fill="#242122" d="M56.1 57c0 .2 0 1.2-.7 1.3s-1.1-.6-1.2-1.5-2-2.4-3-3.7-1.3-.9-.3-1.8 1.3.1 1.8.5l2.6 2.6a3 3 0 0 1 .8 2.6z"/><path fill="#252425" d="M16.5 69.9c-1.2-1.8-1.3-3.2.2-4.4a17.5 17.5 0 0 0 1.8-1.8c.5-.6.9-.3 1.3.1s.8.7.2 1.2l-.7.7c-1.5 1-1.8 2.7-2.8 4.2z"/><path fill="#1e1d1d" d="M10.1 63.5a2.5 2.5 0 0 1 .8-2l3.1-3.2c.6-.7 1-.5 1.6 0s.1.9-.2 1.4-3.2 2.5-3.6 4.7c-.1.3-.6 1-1 .8s-.7-1.1-.7-1.7z"/><path fill="#201f20" d="M7.8 56.8a3 3 0 0 1 .9-2.3c1-1 2.1-2 3-3.1s1-.5 1.6 0 .2.9-.2 1.4-3.3 2.4-3.5 4.7c0 .3-.5.9-1 .7s-.8-.9-.8-1.4z"/><path fill="#262525" d="M47.3 70.1a12 12 0 0 0-3.5-5.2c-.6-.5.3-.8.6-1.2s.6-.2.9.2l1.9 2c1.6 1.5 1.7 1.7.1 4.2z"/><path fill="#252223" d="M52 63.2l-3.5-3.5c-.5-.5-.6-.9-.1-1.5s.9-.6 1.4 0 2.5 2.2 3.4 3.6-.3 1.3-1.2 1.4z"/><path fill="#212020" d="M10.2 46.8a2.7 2.7 0 0 1-.7 2.3s-.5-.2-.6-.4-.8-2.1 0-2.9 3.2-2.9 4.7-4.3c.9.5.8 1.1.2 1.7l-2.2 2.1c-.5.3-1.2.5-1.4 1.2s0 .2 0 .3z"/><path fill="#181717" d="M11.3 45.2c.9-1.2 3.1-1.4 2.3-3.7.7-.8.9.2 1.3.4s.3.3.1.6-2.7 3.4-4.9 4.3H10c0-1 .9-1.2 1.3-1.6z"/><path fill="#242323" d="M52 63.2a3.1 3.1 0 0 0 1.2-1.3c1 1.2.7 2.3-.2 3.5-.6-.7-1.5-1.1-1-2.2z"/><path fill="#040303" d="M22.4 15.9a1 1 0 0 1-1.6 0 1.3 1.3 0 0 1 1.6 0z"/><path fill="#262223" d="M18 26.7v4.1h-.2v-4.2zm.1-1.4a4.2 4.2 0 0 1 .1-1c.5-.1.2.4.3.6a1.3 1.3 0 0 1-.1.5z"/><path fill="#282425" d="M11.5 62.3a10 10 0 0 1 3.5-3.5zm.1-9.2c-.8 1.5-2.6 2.2-2.9 3.9-.2-2.2 1.6-2.9 2.9-3.9zm.1 0c.1-.7.3-1 .9-1.1s-.5.9-.9 1.1z"/><path fill="#252424" d="M11.3 45.2l-1.2 1.6c-.5-1.3.4-1.4 1.2-1.6z"/></symbol><symbol id="icon-b-4" viewBox="0 0 81 70.8"><path fill="#262424" d="M34.8 30.5c-.2 1-.8 1.8-1.8 1.7a1.7 1.7 0 0 1-1.7-1.8 1.6 1.6 0 0 1 1.8-1.7c1.1.1 1.6.8 1.7 1.8z"/><path fill="#252324" d="M49.7 30.3c-.1 1.2-.7 1.9-1.7 1.9a1.6 1.6 0 0 1-1.8-1.7 1.6 1.6 0 0 1 1.6-1.8 1.7 1.7 0 0 1 1.9 1.6z"/><path fill="#242122" d="M44.7 50.6h-.1c-.6-.8-1.7-1.1-1.7-2.3a11.5 11.5 0 0 1-1-3.4c-.2-2.1 1.7-1.3 2.5-2s1.2-2.2-.3-2.9a7.9 7.9 0 0 0-6.1-.2c-.8.3-1.5.7-1.5 1.6s.7 1.5 1.5 1.8 2.4 1.5 1.6 3.7a9.6 9.6 0 0 1-2 2.9c0 .7-.6.8-1.1 1s-.9 1.1-.5 1.9c.5 3.9 2.7 5.9 5.9 5.1s3.5-2.7 3.7-5.2-.1-1.6-.9-2zm-3.5 5.5h-.7a3.2 3.2 0 0 1-2.4-3.6c.1-1.7 2.3-2 2.4-3.5l3.1 2.8V54a4.4 4.4 0 0 1-2.3 2.1z"/><path fill="#211f20" d="M45.7 52.6c.3-1.1-.6-1.5-1.2-2a.3.3 0 0 1 .5 0c5 1.4 8.2-.2 9.4-4.9.3-.9.8-1 1.4-.9s.6.9.5 1.4a8.2 8.2 0 0 1-9.9 6.7z"/><path fill="#212020" d="M37.7 49.8c.6.7-.2 1-.5 1.1s-.8 1.1-1 1.8c-5 1.2-9.5-1.4-10.5-6.2-.1-.6-.7-1.5.5-1.7s1.2.4 1.5 1.3c.6 2.5 1.9 4.5 4.7 5A4.5 4.5 0 0 0 35 51z"/><path fill="#110e0f" d="M45 50.6h-.5c-.7-.7-2-1-1.6-2.4z"/><path fill="#242122" d="M35 51a2.4 2.4 0 0 1-2.8 0z"/><path fill="#f9f9f8" d="M40.6 56.1h.7c-.3.3-.5.3-.7 0zm3.1-2.1v-2.2a2.5 2.5 0 0 1 0 2.2z"/><path fill="#0d0a0b" d="M44 54.1h-.3v-2.3c.9.7.3 1.5.3 2.3z"/><path fill="#0c0a0b" d="M41.7 56.3a1.4 1.4 0 0 1-1.6 0l.5-.2h.7z"/><path fill="#242122" d="M46.9 51.9h2.7v.2h-2.7zm-14.7 0H35v.2h-2.8z"/><path fill="#232021" d="M19 35.3c-.5-.4-.4-.9-.4-1.5a24.3 24.3 0 0 0-3-11c-1.3-2.5-.9-3.8 1.4-5.3 5-3 10.3-3.5 15.9-2.8.8.1 1 .4.9 1.1s-.7.9-1.4.8c-4.9-.7-9.6-.2-13.9 2.4-1.4.9-1.8 1.7-.9 3.2a19.9 19.9 0 0 1 2.7 8.4 8.4 8.4 0 0 0-.1 2.5 1.6 1.6 0 0 1 .2-1.4 3.8 3.8 0 0 1 .3 1.9c.1 1.4.7 1.9 2.1 1.4s1-1.5 1.6-.6-.3 1.6-1.1 2.1l-.5.2c-1.7.4-2.7-.6-3.8-1.4z"/><path fill="#1e1d1d" d="M66.6 21.7a23.2 23.2 0 0 0-3.3 9.7c-.4 1.1.1 2.2-.3 3.3s-.4.7-.5 1a1.1 1.1 0 0 0-1.4.1 1.4 1.4 0 0 1-1.8 0c-.4-.4-.2-.7.4-.6 2.1-.1 1.6-1.8 1.9-3.1s-.1-1.4.3-2.1a17.7 17.7 0 0 1 2.1-7.2c1.2-2.4 1.2-2.4-1.1-4a.8.8 0 0 1-.1-.7 1.1 1.1 0 0 0 1-.6h.5a4.5 4.5 0 0 1 2.2 2.1 2.9 2.9 0 0 1 .1 2.1z"/><path fill="#1c1a1b" d="M22.6 36.5c.5-.6 1.6-.8 1.5-2s-.8 1.2-1.5.5a3.2 3.2 0 0 0 .7-2.4 12.2 12.2 0 0 1 3.2-7.6c.8.5.8.5-.2 1.8a9.8 9.8 0 0 0-1 1.7c-.1.2-.1.2 0 .2a7.1 7.1 0 0 1 .9-1.7c.3-.3.4-.8.9-.8s.4.2.3.5a13.4 13.4 0 0 0-2.3 7 3.1 3.1 0 0 1-2.1 3.2z"/><path fill="#1d1c1c" d="M58.2 36.5A1.6 1.6 0 0 1 57 35c-.4-.9.1-1.9-.3-2.8-.8-2.5-1.5-5-3.5-6.8s0-1 .3-1.4.7-.1 1 .2a12.8 12.8 0 0 1 3.8 7.1c.4.9-.1 1.9.3 2.8a.3.3 0 0 1 .1.3c-.2 1.1-.6.2-.9.1a8.6 8.6 0 0 1-.2-2.4c.1.8-.2 1.6.2 2.3s.8.9.7 1.5a.9.9 0 0 1-.3.6z"/><path fill="#1a1919" d="M63 17.9v.9a20.8 20.8 0 0 0-13.1-2.2c-1 .1-1.7.2-1.9-.9s1-.8 1.6-1h.6a24.3 24.3 0 0 1 5.9 0h1c-.3 1.1-1.3.7-1.9.7h-2.7c2.8.2 5.4 0 7.8.9l1.9.8a1.3 1.3 0 0 1 .8.8z"/><path fill="#252323" d="M60.6 16.7a77.4 77.4 0 0 0-8.6-1.3c1.9-.6 3.5.2 5-.6a11.4 11.4 0 0 1 5.2 1.5 1.1 1.1 0 0 1-1.6.4z"/><path fill="#242122" d="M57.8 34.6c.3.1.6.4.8-.1l.9.8c1.3 1.3 1.6-.3 2.4-.8l.5 1.2a1.8 1.8 0 0 1-1.4 1.2c-.9-.2-2 .1-2.8-.8z"/><path fill="#262424" d="M27.4 26.7c-.6-.6-.8.3-1.2.3s1.3-1.2.3-2c.6-.5.6-1.9 1.9-1.1s1 .9.2 1.6z"/><path fill="#161515" d="M22.6 36.5l.4.3a2.9 2.9 0 0 1-4-1.5 1.5 1.5 0 0 1 0-.6c.3-.5.3-.1.4.1a2.9 2.9 0 0 0 3.2 1.7z"/><path fill="#242122" d="M60.6 16.7l1.6-.4 2.1 1.1h-.5c-.5.6-1.1-.4-1.6 0a2.2 2.2 0 0 1-1.6-.7z"/><path fill="#252323" d="M56 14.7h-5.9a12.3 12.3 0 0 1 5.9 0z"/><path fill="#0a0809" d="M20.3 31.7l-.2 2.1c-.2-1.1-.6-2.1.1-3.2z"/><path fill="#0e0d0e" d="M58.2 36.1l2.8.8a2.6 2.6 0 0 1-2.8-.4v-.4z"/><path fill="#242122" d="M63 34.7c.1-1.1-.4-2.2.3-3.3a8.5 8.5 0 0 1-.3 3.3zm-4.4-.5c-.7-.9-.2-1.9-.3-2.8a5.1 5.1 0 0 1 .3 2.8zm-1.9-2c.7.9.3 1.9.3 2.8-.6-.9-.3-1.9-.3-2.8zm5.1-2.1c0 .7.3 1.4-.3 2.1a3.3 3.3 0 0 1 .3-2.1z"/><path fill="#262425" d="M66.6 21.7v-2a1.5 1.5 0 0 1 0 2z"/><path fill="#242122" d="M62.5 30.3v2.2h-.2v-2.2z"/><path fill="#252323" d="M65.6 19.5a1.3 1.3 0 0 1-1.2-1c.8-.1 1 .5 1.2 1z"/><path fill="#242122" d="M64 24.9c.3.6 0 1-.4 1.5s0-1 .4-1.5z"/><path fill="#252323" d="M62.2 17.5c.5-.7 1.1.1 1.6 0s-.4.6-.8.4z"/><path fill="#262424" d="M26.5 26.7l-1.4 2.8a2.8 2.8 0 0 1 1.4-2.8z"/><path fill="#232021" d="M24.4 30.9a1.3 1.3 0 0 1 0 1.3 1.1 1.1 0 0 1 0-1.3z"/><path fill="#242122" d="M55.5 26.6a3.7 3.7 0 0 1 1.4 2.8 6.2 6.2 0 0 1-1.4-2.8zm0 0a5 5 0 0 1-1.9-2.1c1.1.7 1.8 1.1 1.9 2.1zm2.2 8.1a4.1 4.1 0 0 1 0-2.8z"/><path fill="#252323" d="M49.1 15.9c.9-.9 1.5-.8 2.2-.5s-1.2.5-2.2.5z"/></symbol></svg>