<svg id="Layer_1" data-name="Layer 1" xmlns="http://www.w3.org/2000/svg" width="1in" height="0.8in" viewBox="0 0 71.7 61.1"><title>Artboard 8</title><path d="M30.2,29.6c-.2,1-.8,1.8-1.8,1.7a1.7,1.7,0,0,1-1.7-1.8,1.6,1.6,0,0,1,1.8-1.7C29.5,27.9,30,28.6,30.2,29.6Z" fill="#262424"/><path d="M45.1,29.4c-.1,1.2-.7,1.9-1.7,1.9a1.6,1.6,0,0,1-1.8-1.7,1.6,1.6,0,0,1,1.6-1.8A1.7,1.7,0,0,1,45.1,29.4Z" fill="#252324"/><path d="M38.5,39.6l-.7.6c-1.3.7-.6,1.9-.6,2.9a1.3,1.3,0,0,1-.1.6c-.4.5-1,.5-1.5.7s-1.1.1-1.4.6a1,1,0,0,1-.7.8,2.7,2.7,0,0,0-1.6.8c-.7.6-1.6,0-2.4.3-2.4-.9-3.2-3.1-4.1-5.2s.2-.8.6-.9,1-.4,1.3.4A9.3,9.3,0,0,0,28.8,44l.8.8c.6.5,1.6.7,1.9,0s4.1-.6,3.7-3.4a1,1,0,0,0-.6-.9,2,2,0,0,1-.7-3.2c1.1-1.5,2.4-1.1,3.7-.4a3.8,3.8,0,0,1,.8.8A2.4,2.4,0,0,1,38.5,39.6Z" fill="#222121"/><path d="M36.9,43.7v-.4a1,1,0,0,1,1.2,0,2.8,2.8,0,0,1,1.8.8c2,1.5,2.6,1.4,4.1-.7a12.1,12.1,0,0,0,1.1-2.1c.2-.4,0-1.1.8-.8s1.1.2.9,1a7.9,7.9,0,0,1-3.1,4.9,3.2,3.2,0,0,1-4.4-.3c-1.5-1.5-3.3-1.4-5.2-1.2.2-.5.7-.6,1.2-.9S36.4,44.2,36.9,43.7Z" fill="#1e1d1e"/><path d="M29.4,46.9c.6-.8,1.8.1,2.4-.7s.8-.3.8.4A2.8,2.8,0,0,1,29.4,46.9Z" fill="#0c0b0c"/><path d="M38.1,43.3H36.9c.4-1-1-2.5.9-3.1C36.8,41.3,36.7,42.4,38.1,43.3Z" fill="#252223"/><path d="M32.5,46.5a.8.8,0,0,0-.8-.4,1.1,1.1,0,0,1,1.7-.4A1.2,1.2,0,0,1,32.5,46.5Z" fill="#252223"/><path d="M38.5,39.6V37.7A1.3,1.3,0,0,1,38.5,39.6Z" fill="#252223"/><path d="M36.9,43.7c-.3.9-1.1.2-1.6.4S36.3,43.8,36.9,43.7Z" fill="#252223"/><path d="M40.4,46.1l-2-1.4C39.8,44.4,40,45.3,40.4,46.1Z" fill="#262324"/><path d="M20.9,19.6c-.4,1-1.4,1.2-2.1,1.8s-1.7,2.7-.7,4.3a5.5,5.5,0,0,1,.4.9c.1,1.1.2,2,1.5.9a.7.7,0,0,0,.2-.6c-.1.3-.1.6-.5.6s-.2-.9-.1-1.3a8.7,8.7,0,0,1,3.5-5.5c.5.7.5.7-.1,1.5s-1.1,1-.6,1.9L21,27.7c-.3.9-.6,1.8-1.8,1.9s-1.6-.8-2.1-1.6c-2.6-4-2.1-6.6,2-9.2a32.5,32.5,0,0,1,6.4-3c.9-.3,1.3-.1,1.6.6s-.3.9-.9,1.2l-5.4,2.2c-.4-.8-.8-.1-1.2,0s-1.6,1.4-2.5,2.1C18.4,21,18.9,19.2,20.9,19.6Z" fill="#1c1b1b"/><path d="M54.9,20.1c2.8,2.2,3,4.2.5,8-.6,0-.9.5-1.2.9a.9.9,0,0,1-1.2,0,1.3,1.3,0,0,1-.6-1.3c.1-.6.6-.6,1.1-.5,2.3-2,2.4-3.9.2-5.8L52,20.1c0-.7.1-1.3,1.1-.9S54.1,20.1,54.9,20.1Z" fill="#242122"/><path d="M53.3,27.1c-.6.3-1.2.6-.5,1.4s.8.5,1.3,0,.5-1.1,1.2-.5c-2.1,2.3-2.9,2.2-3.9-.8s-1.5-4-3.3-5.2-.3-1.1,0-1.6.9-.2,1.2.1A10.9,10.9,0,0,1,53.3,27.1Z" fill="#1e1c1d"/><path d="M54.9,20.1c-.8.7-1.2-.3-1.6-.5s-.9.2-1.2.5l-6.1-2.6c-.8-.3-.6-.8-.5-1.4s.8-.6,1.3-.4C49.6,16.8,52.5,17.9,54.9,20.1Z" fill="#1f1e1e"/><path d="M22.4,24.1c-.8-.4-.8-.8-.3-1.6s1.5-.7,1-1.7.7-1.3,1.4-.3.7,1.1-.2,1.7A13,13,0,0,0,22.4,24.1Z" fill="#262324"/><path d="M19.6,26.2c.1.5,0,1,.4,1.3h0c-.2.7-.2,1.7-1.4,1.1s-.7-1.3-.1-2C19.2,27.6,19.2,26.4,19.6,26.2Z" fill="#262324"/><path d="M20.9,19.6c-2.1.2-2.9,2.1-4.2,3.2.3-1.5,2.6-3.8,4-3.9s.1.5.2.7Z" fill="#262324"/><path d="M17.1,26.1a1.5,1.5,0,0,1-.6-1.5A1.3,1.3,0,0,1,17.1,26.1Z" fill="#262324"/><path d="M20,27.5a1.8,1.8,0,0,1,.6-1.7,1.6,1.6,0,0,1-.6,1.7Z" fill="#262324"/><path d="M48.6,21.3a4.1,4.1,0,0,1,2.7,3.1Z" fill="#272424"/></svg>