<svg xmlns="http://www.w3.org/2000/svg" width="1.1in" height="96" data-name="Layer 1" viewBox="0 0 81 70.8"><path fill="#262424" d="M34.8 30.5c-.2 1-.8 1.8-1.8 1.7a1.7 1.7 0 0 1-1.7-1.8 1.6 1.6 0 0 1 1.8-1.7c1.1.1 1.6.8 1.7 1.8z"/><path fill="#252324" d="M49.7 30.3c-.1 1.2-.7 1.9-1.7 1.9a1.6 1.6 0 0 1-1.8-1.7 1.6 1.6 0 0 1 1.6-1.8 1.7 1.7 0 0 1 1.9 1.6z"/><path fill="#242122" d="M44.7 50.6h-.1c-.6-.8-1.7-1.1-1.7-2.3a11.5 11.5 0 0 1-1-3.4c-.2-2.1 1.7-1.3 2.5-2s1.2-2.2-.3-2.9a7.9 7.9 0 0 0-6.1-.2c-.8.3-1.5.7-1.5 1.6s.7 1.5 1.5 1.8 2.4 1.5 1.6 3.7a9.6 9.6 0 0 1-2 2.9c0 .7-.6.8-1.1 1s-.9 1.1-.5 1.9c.5 3.9 2.7 5.9 5.9 5.1s3.5-2.7 3.7-5.2-.1-1.6-.9-2zm-3.5 5.5h-.7a3.2 3.2 0 0 1-2.4-3.6c.1-1.7 2.3-2 2.4-3.5l3.1 2.8V54a4.4 4.4 0 0 1-2.3 2.1z"/><path fill="#211f20" d="M45.7 52.6c.3-1.1-.6-1.5-1.2-2a.3.3 0 0 1 .5 0c5 1.4 8.2-.2 9.4-4.9.3-.9.8-1 1.4-.9s.6.9.5 1.4a8.2 8.2 0 0 1-9.9 6.7z"/><path fill="#212020" d="M37.7 49.8c.6.7-.2 1-.5 1.1s-.8 1.1-1 1.8c-5 1.2-9.5-1.4-10.5-6.2-.1-.6-.7-1.5.5-1.7s1.2.4 1.5 1.3c.6 2.5 1.9 4.5 4.7 5A4.5 4.5 0 0 0 35 51z"/><path fill="#110e0f" d="M45 50.6h-.5c-.7-.7-2-1-1.6-2.4z"/><path fill="#242122" d="M35 51a2.4 2.4 0 0 1-2.8 0z"/><path fill="#f9f9f8" d="M40.6 56.1h.7c-.3.3-.5.3-.7 0zm3.1-2.1v-2.2a2.5 2.5 0 0 1 0 2.2z"/><path fill="#0d0a0b" d="M44 54.1h-.3v-2.3c.9.7.3 1.5.3 2.3z"/><path fill="#0c0a0b" d="M41.7 56.3a1.4 1.4 0 0 1-1.6 0l.5-.2h.7z"/><path fill="#242122" d="M46.9 51.9h2.7v.2h-2.7zm-14.7 0H35v.2h-2.8z"/><path fill="#232021" d="M19 35.3c-.5-.4-.4-.9-.4-1.5a24.3 24.3 0 0 0-3-11c-1.3-2.5-.9-3.8 1.4-5.3 5-3 10.3-3.5 15.9-2.8.8.1 1 .4.9 1.1s-.7.9-1.4.8c-4.9-.7-9.6-.2-13.9 2.4-1.4.9-1.8 1.7-.9 3.2a19.9 19.9 0 0 1 2.7 8.4 8.4 8.4 0 0 0-.1 2.5 1.6 1.6 0 0 1 .2-1.4 3.8 3.8 0 0 1 .3 1.9c.1 1.4.7 1.9 2.1 1.4s1-1.5 1.6-.6-.3 1.6-1.1 2.1l-.5.2c-1.7.4-2.7-.6-3.8-1.4z"/><path fill="#1e1d1d" d="M66.6 21.7a23.2 23.2 0 0 0-3.3 9.7c-.4 1.1.1 2.2-.3 3.3s-.4.7-.5 1a1.1 1.1 0 0 0-1.4.1 1.4 1.4 0 0 1-1.8 0c-.4-.4-.2-.7.4-.6 2.1-.1 1.6-1.8 1.9-3.1s-.1-1.4.3-2.1a17.7 17.7 0 0 1 2.1-7.2c1.2-2.4 1.2-2.4-1.1-4a.8.8 0 0 1-.1-.7 1.1 1.1 0 0 0 1-.6h.5a4.5 4.5 0 0 1 2.2 2.1 2.9 2.9 0 0 1 .1 2.1z"/><path fill="#1c1a1b" d="M22.6 36.5c.5-.6 1.6-.8 1.5-2s-.8 1.2-1.5.5a3.2 3.2 0 0 0 .7-2.4 12.2 12.2 0 0 1 3.2-7.6c.8.5.8.5-.2 1.8a9.8 9.8 0 0 0-1 1.7c-.1.2-.1.2 0 .2a7.1 7.1 0 0 1 .9-1.7c.3-.3.4-.8.9-.8s.4.2.3.5a13.4 13.4 0 0 0-2.3 7 3.1 3.1 0 0 1-2.1 3.2z"/><path fill="#1d1c1c" d="M58.2 36.5A1.6 1.6 0 0 1 57 35c-.4-.9.1-1.9-.3-2.8-.8-2.5-1.5-5-3.5-6.8s0-1 .3-1.4.7-.1 1 .2a12.8 12.8 0 0 1 3.8 7.1c.4.9-.1 1.9.3 2.8a.3.3 0 0 1 .1.3c-.2 1.1-.6.2-.9.1a8.6 8.6 0 0 1-.2-2.4c.1.8-.2 1.6.2 2.3s.8.9.7 1.5a.9.9 0 0 1-.3.6z"/><path fill="#1a1919" d="M63 17.9v.9a20.8 20.8 0 0 0-13.1-2.2c-1 .1-1.7.2-1.9-.9s1-.8 1.6-1h.6a24.3 24.3 0 0 1 5.9 0h1c-.3 1.1-1.3.7-1.9.7h-2.7c2.8.2 5.4 0 7.8.9l1.9.8a1.3 1.3 0 0 1 .8.8z"/><path fill="#252323" d="M60.6 16.7a77.4 77.4 0 0 0-8.6-1.3c1.9-.6 3.5.2 5-.6a11.4 11.4 0 0 1 5.2 1.5 1.1 1.1 0 0 1-1.6.4z"/><path fill="#242122" d="M57.8 34.6c.3.1.6.4.8-.1l.9.8c1.3 1.3 1.6-.3 2.4-.8l.5 1.2a1.8 1.8 0 0 1-1.4 1.2c-.9-.2-2 .1-2.8-.8z"/><path fill="#262424" d="M27.4 26.7c-.6-.6-.8.3-1.2.3s1.3-1.2.3-2c.6-.5.6-1.9 1.9-1.1s1 .9.2 1.6z"/><path fill="#161515" d="M22.6 36.5l.4.3a2.9 2.9 0 0 1-4-1.5 1.5 1.5 0 0 1 0-.6c.3-.5.3-.1.4.1a2.9 2.9 0 0 0 3.2 1.7z"/><path fill="#242122" d="M60.6 16.7l1.6-.4 2.1 1.1h-.5c-.5.6-1.1-.4-1.6 0a2.2 2.2 0 0 1-1.6-.7z"/><path fill="#252323" d="M56 14.7h-5.9a12.3 12.3 0 0 1 5.9 0z"/><path fill="#0a0809" d="M20.3 31.7l-.2 2.1c-.2-1.1-.6-2.1.1-3.2z"/><path fill="#0e0d0e" d="M58.2 36.1l2.8.8a2.6 2.6 0 0 1-2.8-.4v-.4z"/><path fill="#242122" d="M63 34.7c.1-1.1-.4-2.2.3-3.3a8.5 8.5 0 0 1-.3 3.3zm-4.4-.5c-.7-.9-.2-1.9-.3-2.8a5.1 5.1 0 0 1 .3 2.8zm-1.9-2c.7.9.3 1.9.3 2.8-.6-.9-.3-1.9-.3-2.8zm5.1-2.1c0 .7.3 1.4-.3 2.1a3.3 3.3 0 0 1 .3-2.1z"/><path fill="#262425" d="M66.6 21.7v-2a1.5 1.5 0 0 1 0 2z"/><path fill="#242122" d="M62.5 30.3v2.2h-.2v-2.2z"/><path fill="#252323" d="M65.6 19.5a1.3 1.3 0 0 1-1.2-1c.8-.1 1 .5 1.2 1z"/><path fill="#242122" d="M64 24.9c.3.6 0 1-.4 1.5s0-1 .4-1.5z"/><path fill="#252323" d="M62.2 17.5c.5-.7 1.1.1 1.6 0s-.4.6-.8.4z"/><path fill="#262424" d="M26.5 26.7l-1.4 2.8a2.8 2.8 0 0 1 1.4-2.8z"/><path fill="#232021" d="M24.4 30.9a1.3 1.3 0 0 1 0 1.3 1.1 1.1 0 0 1 0-1.3z"/><path fill="#242122" d="M55.5 26.6a3.7 3.7 0 0 1 1.4 2.8 6.2 6.2 0 0 1-1.4-2.8zm0 0a5 5 0 0 1-1.9-2.1c1.1.7 1.8 1.1 1.9 2.1zm2.2 8.1a4.1 4.1 0 0 1 0-2.8z"/><path fill="#252323" d="M49.1 15.9c.9-.9 1.5-.8 2.2-.5s-1.2.5-2.2.5z"/></svg>