<svg xmlns="http://www.w3.org/2000/svg" width="96" height="1.3in" data-name="Layer 1" viewBox="0 0 69.5 91.7"><path fill="#fff" stroke="#fff" stroke-miterlimit="10" d="M46.2 52.5c0-2 .1-4.1 0-6.1s.1-1.4 1.1-1.4.9.8.9 1.4a100.5 100.5 0 0 1-.1 11.5c-.3 3.3 1.9 6.1 4.9 6.4a5.6 5.6 0 0 0 6-5.5c.3-4.4-.9-8.5-2.2-12.5s-3.6-9-4.7-13.8a14.1 14.1 0 0 1-.3-3.1c0-1.5-.5-2.8-2-3.2s-.8-1.2-.6-1.7.9-.2 1.3-.1 3.1 1.8 3.1 3.7c.1 5.3 2.3 10 4 14.8s3.5 9.9 3.4 15.4-4.9 9.2-9.7 7.6a7.5 7.5 0 0 1-5.1-7.8c.1-1.8.2-3.7.3-5.5zm-23.5.5c.1 1.8.2 3.6.3 5.3a7.5 7.5 0 0 1-6.7 7.9 7.5 7.5 0 0 1-8-6.8c-.6-4.8.8-9.3 2.2-13.7s3.5-8.8 4.6-13.4a17.9 17.9 0 0 0 .4-3.7 4.5 4.5 0 0 1 3.3-4.4c.4-.1 1.1-.6 1.3.2s.5 1.3-.5 1.6-2.2 1.8-2.2 3.5-1.1 5.9-2.1 8.8c-1.8 5-3.9 9.9-4.8 15.2a16.7 16.7 0 0 0-.2 6.1 5.6 5.6 0 0 0 5.9 4.7 5.5 5.5 0 0 0 4.8-5.8 116.5 116.5 0 0 1 0-11.9c0-.6-.5-1.7.9-1.7s1 1.1 1 1.9v6.1zm18.6-19a1.7 1.7 0 0 1 1.6 1.8 1.6 1.6 0 0 1-1.8 1.7 1.7 1.7 0 0 1-1.7-1.8 1.7 1.7 0 0 1 1.9-1.7zm-14.9 3.6c-1-.1-1.7-.6-1.7-1.7a1.6 1.6 0 0 1 1.6-1.8 1.6 1.6 0 0 1 1.7 1.6c.1 1.1-.6 1.6-1.6 1.9zm11.3 31.9l1.2 1.7c.1.9-.3 1.3-1.1.8a2.1 2.1 0 0 1-1.3-2c.4-2.7-.6-5-2-7.1a5.3 5.3 0 0 1-.5-1.5c0-.1 0-.3-.2-.2s0 .2-.2.3h-.4c-.9 2.1-2.8 3.7-2.8 6.2a13.5 13.5 0 0 1 0 2.4 3.6 3.6 0 0 1-3.3 3.2 3.5 3.5 0 0 1-3.8-2.2c-.2-.4-.7-1 0-1.4s1.3-.4 1.7.4 1.2 1.6 2.4 1.2 1.2-1.5 1.1-2.5a7.8 7.8 0 0 1 1.4-5.3c1.9-2.9 2.4-6.3 2.3-9.8a1.5 1.5 0 0 0-.9-1.3c-1.4-.9-1-2.1-.1-3.2a2.5 2.5 0 0 1 3.8 0c.9 1.1 1.3 2.3-.1 3.2s-.8 1-.8 1.7a19.6 19.6 0 0 0 3.4 11.5 8.9 8.9 0 0 0 .2 3.9z"/><path fill="#fff" stroke="#fff" stroke-miterlimit="10" d="M33.6 61.5c0-.6-.9-.3-.8-.9s.3-.3.4-.3.8.5.9.9c1 2.9 3.5 5.2 2.7 8.7-.2.9.6 1.6 1.3 2s.3-.6.7-.7h1.4c1.2.3 1.4-.9 2.1-1.3a.7.7 0 0 1 .8.2c-1.4 2.8-2.8 3.7-4.9 2.9s-2.3-1.6-2.2-3a12.1 12.1 0 0 0-2.1-7.4 4.1 4.1 0 0 1-.3-1.1z"/><path fill="#fff" stroke="#fff" stroke-miterlimit="10" d="M42.3 70.1c-.8 1.9-1.2 2.1-2.1 1.1l1.3-1.5zm-4.6-.6c-.1.2-.4.5-.4.4s-.4-3.1.3-4.6a12.2 12.2 0 0 1 .1 4.2z"/><path fill="#fff" stroke="#fff" stroke-miterlimit="10" d="M42.3 70.1c-.4.2-.8.3-.8-.4s1.3-.7 1.6.4z"/></svg>