<svg xmlns="http://www.w3.org/2000/svg" width="96" height="76.8" data-name="Layer 1" viewBox="0 0 71.7 61.1"><path fill="#fff" stroke="#fff" stroke-miterlimit="10" d="M30.2 29.6c-.2 1-.8 1.8-1.8 1.7a1.7 1.7 0 0 1-1.7-1.8 1.6 1.6 0 0 1 1.8-1.7c1 .1 1.5.8 1.7 1.8zm14.9-.2c-.1 1.2-.7 1.9-1.7 1.9a1.6 1.6 0 0 1-1.8-1.7 1.6 1.6 0 0 1 1.6-1.8 1.7 1.7 0 0 1 1.9 1.6zm-6.6 10.2l-.7.6c-1.3.7-.6 1.9-.6 2.9a1.3 1.3 0 0 1-.1.6c-.4.5-1 .5-1.5.7s-1.1.1-1.4.6a1 1 0 0 1-.7.8 2.7 2.7 0 0 0-1.6.8c-.7.6-1.6 0-2.4.3-2.4-.9-3.2-3.1-4.1-5.2s.2-.8.6-.9 1-.4 1.3.4a9.3 9.3 0 0 0 1.5 2.8l.8.8c.6.5 1.6.7 1.9 0s4.1-.6 3.7-3.4a1 1 0 0 0-.6-.9 2 2 0 0 1-.7-3.2c1.1-1.5 2.4-1.1 3.7-.4a3.8 3.8 0 0 1 .8.8 2.4 2.4 0 0 1 .1 1.9z"/><path fill="#fff" stroke="#fff" stroke-miterlimit="10" d="M36.9 43.7v-.4a1 1 0 0 1 1.2 0 2.8 2.8 0 0 1 1.8.8c2 1.5 2.6 1.4 4.1-.7a12.1 12.1 0 0 0 1.1-2.1c.2-.4 0-1.1.8-.8s1.1.2.9 1a7.9 7.9 0 0 1-3.1 4.9 3.2 3.2 0 0 1-4.4-.3c-1.5-1.5-3.3-1.4-5.2-1.2.2-.5.7-.6 1.2-.9s1.1.2 1.6-.3zm-7.5 3.2c.6-.8 1.8.1 2.4-.7s.8-.3.8.4a2.8 2.8 0 0 1-3.2.3z"/><path fill="#fff" stroke="#fff" stroke-miterlimit="10" d="M38.1 43.3h-1.2c.4-1-1-2.5.9-3.1-1 1.1-1.1 2.2.3 3.1zm-5.6 3.2a.8.8 0 0 0-.8-.4 1.1 1.1 0 0 1 1.7-.4 1.2 1.2 0 0 1-.9.8zm6-6.9v-1.9a1.3 1.3 0 0 1 0 1.9zm-1.6 4.1c-.3.9-1.1.2-1.6.4s1-.3 1.6-.4zm3.5 2.4l-2-1.4c1.4-.3 1.6.6 2 1.4zM20.9 19.6c-.4 1-1.4 1.2-2.1 1.8s-1.7 2.7-.7 4.3a5.5 5.5 0 0 1 .4.9c.1 1.1.2 2 1.5.9a.7.7 0 0 0 .2-.6c-.1.3-.1.6-.5.6s-.2-.9-.1-1.3a8.7 8.7 0 0 1 3.5-5.5c.5.7.5.7-.1 1.5s-1.1 1-.6 1.9L21 27.7c-.3.9-.6 1.8-1.8 1.9s-1.6-.8-2.1-1.6c-2.6-4-2.1-6.6 2-9.2a32.5 32.5 0 0 1 6.4-3c.9-.3 1.3-.1 1.6.6s-.3.9-.9 1.2l-5.4 2.2c-.4-.8-.8-.1-1.2 0s-1.6 1.4-2.5 2.1c1.3-.9 1.8-2.7 3.8-2.3zm34 .5c2.8 2.2 3 4.2.5 8-.6 0-.9.5-1.2.9a.9.9 0 0 1-1.2 0 1.3 1.3 0 0 1-.6-1.3c.1-.6.6-.6 1.1-.5 2.3-2 2.4-3.9.2-5.8L52 20.1c0-.7.1-1.3 1.1-.9s1 .9 1.8.9z"/><path fill="#fff" stroke="#fff" stroke-miterlimit="10" d="M53.3 27.1c-.6.3-1.2.6-.5 1.4s.8.5 1.3 0 .5-1.1 1.2-.5c-2.1 2.3-2.9 2.2-3.9-.8s-1.5-4-3.3-5.2-.3-1.1 0-1.6.9-.2 1.2.1a10.9 10.9 0 0 1 4 6.6zm1.6-7c-.8.7-1.2-.3-1.6-.5s-.9.2-1.2.5L46 17.5c-.8-.3-.6-.8-.5-1.4s.8-.6 1.3-.4c2.8 1.1 5.7 2.2 8.1 4.4zm-32.5 4c-.8-.4-.8-.8-.3-1.6s1.5-.7 1-1.7.7-1.3 1.4-.3.7 1.1-.2 1.7a13 13 0 0 0-1.9 1.9zm-2.8 2.1c.1.5 0 1 .4 1.3-.2.7-.2 1.7-1.4 1.1s-.7-1.3-.1-2c.7 1 .7-.2 1.1-.4zm1.3-6.6c-2.1.2-2.9 2.1-4.2 3.2.3-1.5 2.6-3.8 4-3.9s.1.5.2.7zm-3.8 6.5a1.5 1.5 0 0 1-.6-1.5 1.3 1.3 0 0 1 .6 1.5zm2.9 1.4a1.8 1.8 0 0 1 .6-1.7 1.6 1.6 0 0 1-.6 1.7z"/><path fill="#fff" stroke="#fff" stroke-miterlimit="10" d="M48.6 21.3a4.1 4.1 0 0 1 2.7 3.1z"/></svg>