<svg id="Layer_1" data-name="Layer 1" xmlns="http://www.w3.org/2000/svg" width="222.7" height="243.5" viewBox="0 0 222.7 243.5"><title>logo-256 </title><path d="M222.3,67.3c0-9.1-1-18.2-1.5-27.3a1.7,1.7,0,0,0-.7-1.4,128.6,128.6,0,0,0-11.4-7.9,66.9,66.9,0,0,0-9.2-5.6c-4.7-2.4-9.8-5.4-14.8-7.3h0a133.7,133.7,0,0,0-15.2-6.1,173,173,0,0,0-38.4-8.6,179.4,179.4,0,0,0-28.3-.9A202.6,202.6,0,0,0,80.2,4.7,154.7,154.7,0,0,0,60.9,9.1a148.6,148.6,0,0,0-23.1,8.6,140.6,140.6,0,0,0-19,10.1,162.4,162.4,0,0,0-14.9,10,3.9,3.9,0,0,0-1.7,3.3C1.6,49.8.9,58.5.6,67.2A140.9,140.9,0,0,0,.2,82.3a13.2,13.2,0,0,1-.2,5c.1,3.2.8,6.3,1.1,9.5a175,175,0,0,0,7.1,34.9,182.4,182.4,0,0,0,12,29.3l.4,1a204.9,204.9,0,0,0,18.3,27.9l.8.7,2.7,3.5,1.5,1.6c3.5,3.8,6.8,7.8,10.7,11.2a56.9,56.9,0,0,0,5.7,5.4,155,155,0,0,0,20,15.3l4.4,3.1,1.6.8a187.9,187.9,0,0,0,23.6,12.1,3.6,3.6,0,0,0,3.2,0l13.1-6,1.5-.9a183.9,183.9,0,0,0,26.1-16.9,172.5,172.5,0,0,0,31.2-31.1,159.7,159.7,0,0,0,15.8-24.1L202,162c2.7-5.2,5.1-10.5,7.4-16a177.6,177.6,0,0,0,12.3-48.7c.3-2.8.1-5.7,1-8.5C222.6,81.7,222.9,74.5,222.3,67.3Zm-5.7,33.9a184.1,184.1,0,0,1-6.4,29.3c-.4,1.4-1,2.8-1.5,4.2a52.7,52.7,0,0,1-3.7,10.1c-1.2,2.5-1.9,5.2-3.6,7.6s-1.4,3.3-1.9,4.9l-5.3,9.2A173.4,173.4,0,0,1,180.8,186a182.7,182.7,0,0,1-15.7,17.5c-4.1,4-8.4,7.6-12.8,11.3l-1.2.7c-2,2.3-4.5,3.8-6.9,5.5-4.3,3-8.9,5.8-13.3,8.6a6.4,6.4,0,0,1-1.3.5,111.7,111.7,0,0,1-17.4,8.9,2.5,2.5,0,0,1-2.1-.2,175.8,175.8,0,0,1-16.8-8.5c-4.3-2.2-8.2-5-12.3-7.5l-8.5-6.3a17.1,17.1,0,0,1-1.7-1.7c-2.8-1.5-5-3.8-7.4-5.9s-5.4-5-8.1-7.5l-4.4-4.7c-3.7-3.9-7-8.2-10.5-12.3a198.7,198.7,0,0,1-17.4-27.9L22,154a112.3,112.3,0,0,1-6.5-15.5h0l-.9-2.2-.8-2.3c-1.6-4.5-2.8-9.2-4-13.8A172.1,172.1,0,0,1,4.9,86.4C4.7,80.6,4.7,75,5,69.2a2.3,2.3,0,0,1,1-1.9A187.4,187.4,0,0,1,29.3,52.4c4.1-2.2,8.4-4.1,12.6-6.2l9.5-3.8c5.6-1.7,11.2-3.7,16.9-5.1a170.8,170.8,0,0,1,21.5-4l6.1-.7c6.6-.4,13.2-1,19.8-.6,8.7.5,17.4,1,26.1,2.6a182.2,182.2,0,0,1,41.7,12.8h.4A205.8,205.8,0,0,1,204.8,59c4,2.6,7.9,5.3,11.7,8.1,1.4,1,1.4,2.4,1.4,3.7A190.7,190.7,0,0,1,216.6,101.2Z" fill="#8bd0da"/><path d="M15.5,138.5h0l-.9-2.2Z" fill="#2075b3"/><path d="M15.5,138.5h0l-.9-2.2Z" fill="#1c3d6c"/><path d="M188.9,107.9v.7a1.2,1.2,0,0,1-.1-.7Z" fill="#214880"/><path d="M188.9,110.6v1h-.1A3.9,3.9,0,0,1,188.9,110.6Z" fill="#214880"/><path d="M37,110.1c0,.5,0,1,0,1.5H37v-2.7h.1C37.1,109.3,37,109.7,37,110.1Z" fill="#234d8a"/><path d="M71.7,192.6a20.1,20.1,0,0,1-6-3.9,23.3,23.3,0,0,1-3.5-4.1l1.6,1.5h0l1.4,1.3,1.3,1.2.7.6,1.5,1.2Z" fill="#234d8a"/><path d="M160.8,184.8a22.6,22.6,0,0,1-5.4,5.3l-2.7,1.7.7-.5,1.3-1,.4-.3.6-.5,1.2-1,.5-.4.9-.8.9-.8Z" fill="#234d8a"/><path d="M56.7,135.5h0Zm0,0h0Z" fill="#27569c"/><path d="M217.9,70.8c0-1.3,0-2.7-1.4-3.7-3.9-2.8-7.7-5.5-11.7-8.1a205.8,205.8,0,0,0-21.2-11.6h-.4a182.2,182.2,0,0,0-41.7-12.8c-8.6-1.6-17.3-2-26.1-2.6-6.6-.4-13.2.2-19.8.6l-6.1.7a170.8,170.8,0,0,0-21.5,4c-5.7,1.4-11.2,3.4-16.9,5.1l-9.5,3.8c-4.2,2-8.5,4-12.6,6.2A187.4,187.4,0,0,0,6,67.3a2.3,2.3,0,0,0-1,1.9c-.3,5.7-.3,11.4-.1,17.1a172.1,172.1,0,0,0,4.8,33.8c1.2,4.7,2.4,9.3,4,13.8l.8,2.3.9,2.2h0A112.3,112.3,0,0,0,22,154l1.1,2.5a198.7,198.7,0,0,0,17.4,27.9c3.5,4.1,6.8,8.4,10.5,12.3l4.4,4.7c2.7,2.5,5.3,5.1,8.1,7.5s4.6,4.3,7.4,5.9a17.1,17.1,0,0,0,1.7,1.7l8.5,6.3c4.1,2.5,8,5.3,12.3,7.5a175.8,175.8,0,0,0,16.8,8.5,2.5,2.5,0,0,0,2.1.2,111.7,111.7,0,0,0,17.4-8.9,6.4,6.4,0,0,0,1.3-.5c4.5-2.8,9-5.6,13.3-8.6,2.4-1.7,4.9-3.2,6.9-5.5l1.2-.7c4.3-3.7,8.7-7.3,12.8-11.3A182.7,182.7,0,0,0,180.8,186a173.4,173.4,0,0,0,13.4-19.5l5.3-9.2c.6-1.7,1.7-3.1,1.9-4.9s2.4-5,3.6-7.6a52.7,52.7,0,0,0,3.7-10.1c.5-1.4,1.1-2.8,1.5-4.2a184.1,184.1,0,0,0,6.4-29.3A190.7,190.7,0,0,0,217.9,70.8ZM117.9,81.6a34.3,34.3,0,0,1,2.5-11,32.8,32.8,0,0,1,2.7-5.1l.6-.9a25.1,25.1,0,0,1,6.5-6.6,18.1,18.1,0,0,1,6.8-2.9l1.3-.2h2.9a14.2,14.2,0,0,1,8.3,3.8,19.3,19.3,0,0,1,4.7,6.9,25.9,25.9,0,0,1,1.6,5.7l.2,1a29.8,29.8,0,0,1,.3,5.4,32.8,32.8,0,0,1-.5,4.4,33.9,33.9,0,0,1-1.4,5.3,31.9,31.9,0,0,1-2.6,5.8,28.7,28.7,0,0,1-2.8,4.1,23.2,23.2,0,0,1-7.2,6h-.3a16.2,16.2,0,0,1-5.8,1.7,14.1,14.1,0,0,1-10.5-3.3,18.1,18.1,0,0,1-4.5-5.8,22.9,22.9,0,0,1-1.5-3.7,27,27,0,0,1-.9-3.9A30,30,0,0,1,117.9,81.6ZM68.9,75.4c0-.7.1-1.4.2-2a25.6,25.6,0,0,1,2.6-8.7,18.5,18.5,0,0,1,5.1-6.3,14,14,0,0,1,6.6-2.9,14.4,14.4,0,0,1,7.5,1,19.3,19.3,0,0,1,5.8,3.8,25.3,25.3,0,0,1,3.6,4.2,29.1,29.1,0,0,1,1.8,2.9,30.3,30.3,0,0,1,1.5,3.3h0a32.6,32.6,0,0,1,1.7,6.1,34,34,0,0,1,.5,5.7,28.6,28.6,0,0,1-1.7,10l-.2.6a20.4,20.4,0,0,1-4.1,6.6,14.6,14.6,0,0,1-7.6,4.4,13.8,13.8,0,0,1-7.2-.3l-2.6-1.1a19.4,19.4,0,0,1-4.2-2.9,25.7,25.7,0,0,1-5.6-7.3,32.2,32.2,0,0,1-3.2-9.5c-.2-1.1-.3-2.2-.4-3.3A32.9,32.9,0,0,1,68.9,75.4ZM56.7,135.5h-.7l-1.2-.2h-1l-.8-.2H53a20,20,0,0,1-6.8-4.1,24.9,24.9,0,0,1-3.5-3.8h0a27.6,27.6,0,0,1-2.4-3.8,28.7,28.7,0,0,1-2.7-7.8,24.9,24.9,0,0,1-.4-3.5H37v-2.7h.1a21.4,21.4,0,0,1,1.4-6.5,15.9,15.9,0,0,1,3.5-5.6A13.1,13.1,0,0,1,49.1,93a13.7,13.7,0,0,1,3.9-.1,16.7,16.7,0,0,1,5.2,1.5,20.5,20.5,0,0,1,5.4,3.6l.4.3a27.6,27.6,0,0,1,7.6,13,25.3,25.3,0,0,1,.8,4.5,0,0,0,0,1,0,0c0,.3,0,.5.1.8a22.5,22.5,0,0,1-1.2,9.1,16.1,16.1,0,0,1-3.3,5.6h0l-.3.3a13.1,13.1,0,0,1-6.6,3.7H56.7Zm107.1,43.3a20.9,20.9,0,0,1-3,5.9,22.6,22.6,0,0,1-5.4,5.3l-2.7,1.7h0a21.5,21.5,0,0,1-4.1,1.6,20.3,20.3,0,0,1-4,.7h-4a41.6,41.6,0,0,1-6.8-1.2l-4.9-1.3h0l-3.3-.9c-2.2-.6-4.5-1.2-6.7-1.6l-4.7-.6h-4.4a33.5,33.5,0,0,0-4.5.5,101.3,101.3,0,0,0-10.2,2.4l-.9.3-6.7,1.7-4.7.7h-4a20.2,20.2,0,0,1-6.7-1.5h0a20.1,20.1,0,0,1-6-3.9,23.3,23.3,0,0,1-3.5-4.1h0a21.5,21.5,0,0,1-2.2-4.1,23,23,0,0,1-1.5-5.5,25.9,25.9,0,0,1-.2-5.3,29.1,29.1,0,0,1,1.3-6.9l.5-1.6a39.2,39.2,0,0,1,7-11.7l2-2.2,3.3-3.1a56.8,56.8,0,0,0,6.7-7.1c2.3-2.9,4.4-5.9,6.6-8.9s3.4-4.9,5.3-7.3a48.8,48.8,0,0,1,4.7-5.3,24.1,24.1,0,0,1,7.5-5.1,18.8,18.8,0,0,1,5.4-1.3h2a29.2,29.2,0,0,1,9.2,1.4,22.6,22.6,0,0,1,8.2,5.1,41.7,41.7,0,0,1,5.5,6.6c1.6,2.3,3.1,4.7,4.6,7.1s3.4,5.1,5.3,7.6a55.4,55.4,0,0,0,7.2,7.6l3.2,3.1a44.4,44.4,0,0,1,6,7.7,35.2,35.2,0,0,1,3.5,7.5c.3.8.5,1.5.7,2.3a28,28,0,0,1,.8,5.9A23.2,23.2,0,0,1,163.8,178.9Zm25.1-67.2h-.1a19.1,19.1,0,0,1-.2,2h0a24.7,24.7,0,0,1-.7,3.3,28.3,28.3,0,0,1-6.7,11.7l-.5.5a22.7,22.7,0,0,1-8,5.3l-2.7.8-.8.2h-3.8a13.3,13.3,0,0,1-7.6-3.1,14.4,14.4,0,0,1-2.7-3.1,16.6,16.6,0,0,1-1.8-3.6,19.5,19.5,0,0,1-1.1-4.9c-.1-.8-.1-1.6-.1-2.4v-.2a26.7,26.7,0,0,1,1.4-8,28.7,28.7,0,0,1,5.2-9.3l1-1.2a23.1,23.1,0,0,1,7.6-5.5l.5-.2a16.9,16.9,0,0,1,6.6-1.3,13.9,13.9,0,0,1,5.6,1.2,13.7,13.7,0,0,1,3.9,2.6,15.2,15.2,0,0,1,3.7,5.7,19,19,0,0,1,1.1,4.7c0,.3.1.6.1.9h.1Z" fill="#2a92a1"/><path d="M71.7,192.6a20.1,20.1,0,0,1-6-3.9,23.3,23.3,0,0,1-3.5-4.1l1.6,1.5h0l1.4,1.3,1.3,1.2.7.6,1.5,1.2Z" fill="#fff"/><path d="M160.8,184.8a22.6,22.6,0,0,1-5.4,5.3l-2.7,1.7.7-.5,1.3-1,.4-.3.6-.5,1.2-1,.5-.4.9-.8.9-.8Z" fill="#fff"/><path d="M37,110.1c0,.5,0,1,0,1.5H37v-2.7h.1C37.1,109.3,37,109.7,37,110.1Z" fill="#9c9999"/><path d="M188.9,110.6v1h-.1A3.9,3.9,0,0,1,188.9,110.6Z" fill="#9c9999"/><path d="M188.9,107.9v.7a1.2,1.2,0,0,1-.1-.7Z" fill="#9c9999"/><path d="M59.1,135.6h0Z" fill="#fff"/></svg>