<svg id="Layer_1" data-name="Layer 1" xmlns="http://www.w3.org/2000/svg" width="58.9" height="63.9" viewBox="0 0 58.9 63.9"><title>logo-64</title><path d="M58.8,17.3c0-2.4-.3-4.8-.4-7.2a.4.4,0,0,0-.2-.4,34,34,0,0,0-3-2.1L52.8,6.1c-1.2-.6-2.6-1.4-3.9-1.9h0a35.4,35.4,0,0,0-4-1.6A45.8,45.8,0,0,0,34.7.3,47.4,47.4,0,0,0,27.2.1a53.6,53.6,0,0,0-6,.7,40.9,40.9,0,0,0-5.1,1.2A39.3,39.3,0,0,0,10,4.2,37.2,37.2,0,0,0,5,6.9,43,43,0,0,0,1,9.5a1,1,0,0,0-.4.9C.4,12.7.2,15,.1,17.3a37.3,37.3,0,0,0-.1,4A3.5,3.5,0,0,1,0,22.6c0,.8.2,1.7.3,2.5a46.3,46.3,0,0,0,1.9,9.2,48.2,48.2,0,0,0,3.2,7.7v.3a54.2,54.2,0,0,0,4.8,7.4l.2.2.7.9.4.4a31.4,31.4,0,0,0,2.8,3l1.5,1.4a41,41,0,0,0,5.3,4l1.2.8.4.2A49.7,49.7,0,0,0,29,63.9a1,1,0,0,0,.9,0l3.5-1.6.4-.2a48.7,48.7,0,0,0,6.9-4.5,45.6,45.6,0,0,0,8.2-8.2A42.2,42.2,0,0,0,53.1,43l.4-.7c.7-1.4,1.4-2.8,2-4.2a47,47,0,0,0,3.2-12.9,10.5,10.5,0,0,1,.3-2.2C58.9,21.1,59,19.2,58.8,17.3Zm-1.5,9A48.7,48.7,0,0,1,55.6,34l-.4,1.1a14,14,0,0,1-1,2.7,12.5,12.5,0,0,1-.9,2,6.6,6.6,0,0,1-.5,1.3l-1.4,2.4a45.9,45.9,0,0,1-3.5,5.2,48.3,48.3,0,0,1-4.2,4.6c-1.1,1.1-2.2,2-3.4,3l-.3.2a9.2,9.2,0,0,1-1.8,1.4l-3.5,2.3h-.4a29.5,29.5,0,0,1-4.6,2.3h-.6a46.5,46.5,0,0,1-4.5-2.2l-3.3-2-2.3-1.7-.4-.4a11.2,11.2,0,0,1-1.9-1.6l-2.1-2-1.2-1.3c-1-1-1.8-2.2-2.8-3.2a52.6,52.6,0,0,1-4.6-7.4l-.3-.6a29.7,29.7,0,0,1-1.7-4.1h0l-.2-.6-.2-.6c-.4-1.2-.8-2.4-1.1-3.7a45.5,45.5,0,0,1-1.3-8.9c-.1-1.5-.1-3,0-4.5a.6.6,0,0,1,.3-.5,49.6,49.6,0,0,1,6.1-3.9l3.3-1.6,2.5-1L18,9.3a45.2,45.2,0,0,1,5.7-1.1l1.6-.2a42.2,42.2,0,0,1,5.2-.2,59.2,59.2,0,0,1,6.9.7,48.2,48.2,0,0,1,11,3.4h.1a54.4,54.4,0,0,1,5.6,3.1l3.1,2.1a1.1,1.1,0,0,1,.4,1A50.4,50.4,0,0,1,57.3,26.2Z" fill="#8bd0da"/><path d="M4.1,36.1h0l-.2-.6Z" fill="#2075b3"/><path d="M4.1,36.1h0l-.2-.6Z" fill="#1c3d6c"/><path d="M50,28v.2a.3.3,0,0,1,0-.2Z" fill="#214880"/><path d="M50,28.7V29h0A1,1,0,0,1,50,28.7Z" fill="#214880"/><path d="M9.8,28.6c0,.1,0,.3,0,.4h0v-.7h0C9.8,28.4,9.8,28.5,9.8,28.6Z" fill="#234d8a"/><path d="M19,50.4a5.3,5.3,0,0,1-1.6-1l-.9-1.1.4.4h0l.4.3.4.3.2.2.4.3Z" fill="#234d8a"/><path d="M42.5,48.3a6,6,0,0,1-1.4,1.4l-.7.4h.2l.3-.3h.3l.3-.3h.1l.2-.2.2-.2Z" fill="#234d8a"/><path d="M15,35.3h0Zm0,0h0Z" fill="#27569c"/><path d="M57.7,18.2a1.1,1.1,0,0,0-.4-1l-3.1-2.1A54.4,54.4,0,0,0,48.6,12h-.1a48.2,48.2,0,0,0-11-3.4,59.2,59.2,0,0,0-6.9-.7,42.2,42.2,0,0,0-5.2.2l-1.6.2A45.2,45.2,0,0,0,18,9.3l-4.5,1.3-2.5,1L7.7,13.3a49.6,49.6,0,0,0-6.1,3.9.6.6,0,0,0-.3.5c-.1,1.5-.1,3,0,4.5a45.5,45.5,0,0,0,1.3,8.9c.3,1.2.6,2.5,1.1,3.7l.2.6.2.6h0a29.7,29.7,0,0,0,1.7,4.1l.3.6a52.6,52.6,0,0,0,4.6,7.4c.9,1.1,1.8,2.2,2.8,3.2l1.2,1.3,2.1,2a11.2,11.2,0,0,0,1.9,1.6l.4.4,2.3,1.7,3.3,2a46.5,46.5,0,0,0,4.5,2.2h.6a29.5,29.5,0,0,0,4.6-2.3h.4l3.5-2.3A9.2,9.2,0,0,0,40,56.5l.3-.2c1.2-1,2.3-1.9,3.4-3a48.3,48.3,0,0,0,4.2-4.6,45.9,45.9,0,0,0,3.5-5.2l1.4-2.4a6.6,6.6,0,0,0,.5-1.3,12.5,12.5,0,0,0,.9-2,14,14,0,0,0,1-2.7l.4-1.1a48.7,48.7,0,0,0,1.7-7.7A50.4,50.4,0,0,0,57.7,18.2ZM31.2,21.1a9.1,9.1,0,0,1,.7-2.9,8.7,8.7,0,0,1,.7-1.4l.2-.2a6.6,6.6,0,0,1,1.7-1.7,4.8,4.8,0,0,1,1.8-.8h1.1a3.8,3.8,0,0,1,2.2,1,5.1,5.1,0,0,1,1.2,1.8,6.8,6.8,0,0,1,.4,1.5v.3a7.9,7.9,0,0,1,.1,1.4,8.7,8.7,0,0,1-.1,1.2,9,9,0,0,1-.4,1.4,8.4,8.4,0,0,1-.7,1.5l-.7,1.1a6.1,6.1,0,0,1-1.9,1.6h-.1a4.3,4.3,0,0,1-1.5.4,3.7,3.7,0,0,1-2.8-.9,4.8,4.8,0,0,1-1.2-1.5l-.4-1a7.1,7.1,0,0,1-.2-1A7.9,7.9,0,0,1,31.2,21.1ZM18.2,19.4v-.5a6.8,6.8,0,0,1,.7-2.3,4.9,4.9,0,0,1,1.4-1.7,3.7,3.7,0,0,1,1.8-.8,3.8,3.8,0,0,1,2,.3,5.1,5.1,0,0,1,1.5,1l.9,1.1.5.8.4.9h0a8.6,8.6,0,0,1,.4,1.6,9,9,0,0,1,.1,1.5,7.6,7.6,0,0,1-.4,2.6v.2a5.4,5.4,0,0,1-1.1,1.7,3.9,3.9,0,0,1-2,1.2,3.7,3.7,0,0,1-1.9-.1l-.7-.3-1.1-.8a6.8,6.8,0,0,1-1.5-1.9,8.5,8.5,0,0,1-.9-2.5c-.1-.3-.1-.6-.1-.9A8.7,8.7,0,0,1,18.2,19.4ZM15,35.3H14A5.3,5.3,0,0,1,12.2,34l-.9-1h0l-.6-1a7.6,7.6,0,0,1-.7-2.1,6.6,6.6,0,0,1-.1-.9h0v-.7h0a5.7,5.7,0,0,1,.4-1.7,4.2,4.2,0,0,1,.9-1.5,3.5,3.5,0,0,1,1.9-1h1l1.4.4a5.4,5.4,0,0,1,1.4,1h.1a7.3,7.3,0,0,1,2,3.4,6.7,6.7,0,0,1,.2,1.2h0v.2a5.9,5.9,0,0,1-.3,2.4,4.2,4.2,0,0,1-.9,1.5h-.1a3.5,3.5,0,0,1-1.7,1H15ZM43.3,46.8a5.5,5.5,0,0,1-.8,1.6,6,6,0,0,1-1.4,1.4l-.7.4h0l-1.1.4-1,.2H37.2l-1.8-.3-1.3-.3h0l-.9-.2-1.8-.4-1.2-.2H27.8l-2.7.6h-.3l-1.8.4-1.3.2H20.8a5.3,5.3,0,0,1-1.8-.4h0a5.3,5.3,0,0,1-1.6-1l-.9-1.1h0l-.6-1.1a6.1,6.1,0,0,1-.4-1.4,6.9,6.9,0,0,1-.1-1.4,7.7,7.7,0,0,1,.3-1.8v-.4A10.4,10.4,0,0,1,17.8,39l.5-.6.9-.8A15,15,0,0,0,21,35.8l1.7-2.3,1.4-1.9,1.2-1.4a6.4,6.4,0,0,1,2-1.4l1.4-.4h.5a7.7,7.7,0,0,1,2.4.4,6,6,0,0,1,2.2,1.3,11,11,0,0,1,1.5,1.8l1.2,1.9,1.4,2a14.6,14.6,0,0,0,1.9,2l.8.8a11.7,11.7,0,0,1,1.6,2,9.3,9.3,0,0,1,.9,2l.2.6a7.4,7.4,0,0,1,.2,1.6A6.1,6.1,0,0,1,43.3,46.8ZM50,29h0a5,5,0,0,1-.1.5h0l-.2.9A7.5,7.5,0,0,1,48,33.5h-.1A6,6,0,0,1,45.7,35l-.7.2H43.8a3.5,3.5,0,0,1-2-.8l-.7-.8-.5-.9a5.2,5.2,0,0,1-.3-1.3c0-.2,0-.4,0-.6h0a7.1,7.1,0,0,1,.4-2.1A7.6,7.6,0,0,1,42,26.2l.3-.3a6.1,6.1,0,0,1,2-1.4h.1a4.5,4.5,0,0,1,1.7-.4,3.7,3.7,0,0,1,1.5.3l1,.7a4,4,0,0,1,1,1.5,5,5,0,0,1,.3,1.2V28h0Z" fill="#2a92a1"/><path d="M19,50.4a5.3,5.3,0,0,1-1.6-1l-.9-1.1.4.4h0l.4.3.4.3.2.2.4.3Z" fill="#fff"/><path d="M42.5,48.3a6,6,0,0,1-1.4,1.4l-.7.4h.2l.3-.3h.3l.3-.3h.1l.2-.2.2-.2Z" fill="#fff"/><path d="M9.8,28.6c0,.1,0,.3,0,.4h0v-.7h0C9.8,28.4,9.8,28.5,9.8,28.6Z" fill="#9c9999"/><path d="M50,28.7V29h0A1,1,0,0,1,50,28.7Z" fill="#9c9999"/><path d="M50,28v.2a.3.3,0,0,1,0-.2Z" fill="#9c9999"/><path d="M15.6,35.3h0Z" fill="#fff"/></svg>