<svg id="Layer_1" data-name="Layer 1" xmlns="http://www.w3.org/2000/svg" width="35.3" height="33.7" viewBox="0 0 35.3 33.7"><title>logo-32</title><path d="M31,9.8c0-1.1-.1-2.3-.2-3.4V6.1l-1.4-1-1.2-.7-1.9-.9h0l-1.9-.8a21.7,21.7,0,0,0-4.8-1.1H16l-2.8.3-2.4.6A18.7,18.7,0,0,0,7.8,3.5L5.5,4.8,3.6,6.1a.5.5,0,0,0-.2.4c-.1,1.1-.2,2.2-.2,3.3a17.7,17.7,0,0,0,0,1.9,1.7,1.7,0,0,1,0,.6c0,.4.1.8.1,1.2a22,22,0,0,0,.9,4.4,22.9,22.9,0,0,0,1.5,3.7h.1A25.7,25.7,0,0,0,8,25.1h.1l.3.4.2.2,1.3,1.4.7.7a19.5,19.5,0,0,0,2.5,1.9l.6.4h.2l3,1.5h.4l1.6-.8h.2a23.1,23.1,0,0,0,3.3-2.1A21.7,21.7,0,0,0,26.3,25a20.1,20.1,0,0,0,2-3l.2-.3.9-2a22.3,22.3,0,0,0,1.5-6.1,5,5,0,0,1,.1-1.1C31.1,11.6,31.1,10.7,31,9.8ZM30.3,14a23.1,23.1,0,0,1-.8,3.7l-.2.5a6.6,6.6,0,0,1-.5,1.3,6,6,0,0,1-.4.9,3.1,3.1,0,0,1-.2.6l-.7,1.2a21.8,21.8,0,0,1-1.7,2.5l-2,2.2-1.6,1.4h-.2l-.9.7-1.7,1.1h-.2l-2.2,1.1h-.3l-2.1-1.1-1.5-.9-1.1-.8-.2-.2-.9-.7-1-.9L9.5,26,8.2,24.5A25,25,0,0,1,6,21v-.3a14.1,14.1,0,0,1-.8-2H5v-.6c-.2-.6-.4-1.2-.5-1.7a21.6,21.6,0,0,1-.6-4.2c0-.7,0-1.4,0-2.2V9.8A23.5,23.5,0,0,1,6.8,7.9l1.6-.8,1.2-.5L11.7,6l2.7-.5h3.2l3.3.3a22.9,22.9,0,0,1,5.2,1.6h0l2.7,1.5,1.5,1a.5.5,0,0,1,.2.5A23.9,23.9,0,0,1,30.3,14Z" fill="#8bd0da"/><path d="M5,18.7H5v0Z" fill="#2075b3"/><path d="M5,18.7H5v0Z" fill="#1c3d6c"/><path d="M26.8,14.9h0a.1.1,0,0,1,0-.1Z" fill="#214880"/><path d="M26.8,15.2h0A.5.5,0,0,1,26.8,15.2Z" fill="#214880"/><path d="M7.7,15.1v.2h0V15h0C7.8,15,7.7,15.1,7.7,15.1Z" fill="#234d8a"/><path d="M12.1,25.5l-.8-.5-.4-.5.2.2h0l.2.2h.4Z" fill="#234d8a"/><path d="M23.3,24.5l-.7.7-.3.2h.8Z" fill="#234d8a"/><path d="M10.2,18.3h0Zm0,0h0Z" fill="#27569c"/><path d="M30.5,10.2a.5.5,0,0,0-.2-.5l-1.5-1L26.2,7.3h0a22.9,22.9,0,0,0-5.2-1.6l-3.3-.3H14.4L11.7,6l-2.1.6-1.2.5-1.6.8A23.5,23.5,0,0,0,3.9,9.8V10c0,.7,0,1.4,0,2.2a21.6,21.6,0,0,0,.6,4.2c.1.6.3,1.2.5,1.7v.6H5a14.1,14.1,0,0,0,.8,2V21a25,25,0,0,0,2.2,3.5L9.5,26l.5.6,1,.9.9.7.2.2,1.1.8,1.5.9,2.1,1.1h.3l2.2-1.1h.2l1.7-1.1.9-.7h.2l1.6-1.4,2-2.2a21.8,21.8,0,0,0,1.7-2.5l.7-1.2a3.1,3.1,0,0,0,.2-.6,6,6,0,0,0,.4-.9,6.6,6.6,0,0,0,.5-1.3l.2-.5a23.1,23.1,0,0,0,.8-3.7A23.9,23.9,0,0,0,30.5,10.2ZM17.9,11.6a4.3,4.3,0,0,1,.3-1.4l.3-.6h.1a3.2,3.2,0,0,1,.8-.8l.9-.4h.5a1.8,1.8,0,0,1,1,.5,2.4,2.4,0,0,1,.6.9,3.2,3.2,0,0,1,.2.7h0a3.7,3.7,0,0,1,0,.7,4.1,4.1,0,0,1-.1.6l-.2.7-.3.7-.4.5a2.9,2.9,0,0,1-.9.7h0l-.7.2a1.8,1.8,0,0,1-1.3-.4,2.3,2.3,0,0,1-.6-.7l-.2-.5v-.5A3.8,3.8,0,0,1,17.9,11.6Zm-6.1-.8v-.3a3.2,3.2,0,0,1,.3-1.1,2.3,2.3,0,0,1,.6-.8l.8-.4h.9l.7.5.5.5.2.4.2.4h0l.2.8a4.3,4.3,0,0,1,.1.7,3.6,3.6,0,0,1-.2,1.3h0a2.6,2.6,0,0,1-.5.8,1.8,1.8,0,0,1-1,.6H13.5l-.5-.4a3.2,3.2,0,0,1-.7-.9,4,4,0,0,1-.4-1.2v-.4A4.1,4.1,0,0,1,11.8,10.8Zm-1.5,7.6H9.8l-.9-.5-.4-.5h0l-.3-.5a3.6,3.6,0,0,1-.3-1v-.4h0V15h0a2.7,2.7,0,0,1,.2-.8,2,2,0,0,1,.4-.7,1.6,1.6,0,0,1,.9-.5h.5l.7.2.7.5h0a3.5,3.5,0,0,1,1,1.6,3.2,3.2,0,0,1,.1.6h0a2.8,2.8,0,0,1-.2,1.1,2,2,0,0,1-.4.7h0a1.6,1.6,0,0,1-.8.5h-.5Zm13.4,5.4-.4.7-.7.7-.3.2h0l-.5.2H19.9l-.6-.2h-.4l-.8-.2H16.3l-1.3.3h-.1l-.8.2H13l-.8-.2h0l-.8-.5-.4-.5h0l-.3-.5a2.9,2.9,0,0,1-.2-.7,3.3,3.3,0,0,1,0-.7,3.7,3.7,0,0,1,.2-.9v-.2a4.9,4.9,0,0,1,.9-1.5l.2-.3.4-.4.8-.9.8-1.1.7-.9.6-.7.9-.6.7-.2H17l1.2.2a2.8,2.8,0,0,1,1,.6l.7.8.6.9.7,1,.9,1,.4.4.8,1,.4.9V22a3.5,3.5,0,0,1,.1.7A2.9,2.9,0,0,1,23.7,23.8Zm3.2-8.4h0v.3h0V16a3.6,3.6,0,0,1-.8,1.5h-.1a2.9,2.9,0,0,1-1,.7h-.9a1.7,1.7,0,0,1-1-.4l-.3-.4-.2-.4a2.5,2.5,0,0,1-.1-.6c0-.1,0-.2,0-.3h0a3.3,3.3,0,0,1,.2-1A3.6,3.6,0,0,1,23,14h.1a2.9,2.9,0,0,1,1-.7h.1L25,13h.7l.5.3a1.9,1.9,0,0,1,.5.7,2.4,2.4,0,0,1,.1.6h0Z" fill="#2a92a1"/><path d="M12.1,25.5l-.8-.5-.4-.5.2.2h0l.2.2h.4Z" fill="#fff"/><path d="M23.3,24.5l-.7.7-.3.2h.8Z" fill="#fff"/><path d="M7.7,15.1v.2h0V15h0C7.8,15,7.7,15.1,7.7,15.1Z" fill="#9c9999"/><path d="M26.8,15.2h0A.5.5,0,0,1,26.8,15.2Z" fill="#9c9999"/><path d="M26.8,14.9h0a.1.1,0,0,1,0-.1Z" fill="#9c9999"/><path d="M10.5,18.3h0Z" fill="#fff"/></svg>