<svg id="Layer_1" data-name="Layer 1" xmlns="http://www.w3.org/2000/svg" width="16" height="16" viewBox="0 0 16 16"><title>logo-16</title><path d="M14.7,4.7c0-.5-.1-1.1-.1-1.6h0l-.7-.5-.5-.3-.9-.4h0l-.9-.4L9.4,1h-3l-1.1.3-1.4.5-1.1.6L1.9,3v.2c0,.5-.1,1-.1,1.5a8.3,8.3,0,0,0,0,.9.8.8,0,0,1,0,.3c0,.2,0,.4.1.6a10.3,10.3,0,0,0,.4,2,10.7,10.7,0,0,0,.7,1.7h0a12,12,0,0,0,1.1,1.6H4l.2.2h.1l.6.7.3.3,1.2.9.3.2h.1l1.4.7h.2l.8-.4h.1l1.5-1a10.1,10.1,0,0,0,1.8-1.8,9.4,9.4,0,0,0,.9-1.4h.1l.4-.9a10.4,10.4,0,0,0,.7-2.9,2.3,2.3,0,0,1,.1-.5C14.7,5.6,14.7,5.2,14.7,4.7Zm-.3,2A10.8,10.8,0,0,1,14,8.4v.2l-.2.6-.2.4V10l-.3.5-.8,1.1-.9,1-.7.7h-.1l-.4.3-.8.5H9.3l-1,.5H8.1l-1-.5-.7-.4-.5-.4H5.8L5.4,13l-.5-.4-.3-.3L4,11.6A11.7,11.7,0,0,1,3,10H2.9l-.4-.9H2.5l-.2-.8a10.1,10.1,0,0,1-.3-2c0-.3,0-.7,0-1H2l1.4-.9.7-.4.6-.2,1-.3,1.3-.2H8.4l1.5.2a10.7,10.7,0,0,1,2.4.8h0l1.2.7.7.5a.2.2,0,0,1,.1.2A11.2,11.2,0,0,1,14.4,6.7Z" fill="#8bd0da"/><path d="M2.6,8.9h0Z" fill="#2075b3"/><path d="M2.6,8.9h0Z" fill="#1c3d6c"/><path d="M12.7,7.1h0Z" fill="#214880"/><path d="M12.7,7.3h0Z" fill="#214880"/><path d="M3.8,7.2h0V7.2h0Z" fill="#234d8a"/><path d="M5.9,12.1l-.4-.2-.2-.2h.6Z" fill="#234d8a"/><path d="M11.1,11.6l-.3.3h.3Z" fill="#234d8a"/><path d="M5,8.7H5Zm0,0H5Z" fill="#27569c"/><path d="M14.4,4.9a.2.2,0,0,0-.1-.2l-.7-.5-1.2-.7h0A10.7,10.7,0,0,0,10,2.8L8.4,2.7H6.9L5.7,3l-1,.3-.6.2-.7.4L2,4.7H2c0,.3,0,.7,0,1a10.1,10.1,0,0,0,.3,2l.2.8h.1l.4.9H3a11.7,11.7,0,0,0,1,1.6l.6.7.3.3.5.4.4.3h.1l.5.4.7.4,1,.5h.1l1-.5h.1l.8-.5.4-.3h.1l.7-.7.9-1,.8-1.1.3-.5V9.7l.2-.4.2-.6V8.4a10.8,10.8,0,0,0,.4-1.7A11.2,11.2,0,0,0,14.4,4.9Zm-5.9.6a2,2,0,0,1,.1-.6l.2-.3h0l.4-.4L9.7,4h.2l.5.2.3.4V5h0a1.7,1.7,0,0,1,0,.3v.6l-.2.3-.2.2-.4.3H9.6L9,6.8l-.3-.3V6A1.8,1.8,0,0,1,8.6,5.6ZM5.7,5.2h0a1.5,1.5,0,0,1,.2-.5l.3-.4L6.6,4H7l.3.2.2.2v.4h0v.4a2,2,0,0,1,0,.3,1.7,1.7,0,0,1-.1.6h0l-.2.4-.4.3H6.5l-.2-.2-.3-.4a1.9,1.9,0,0,1-.2-.6V5.5A1.9,1.9,0,0,1,5.7,5.2ZM5,8.7H4.8l-.4-.2-.2-.2h0V8l-.2-.5V7.3h0V7.2h0a1.3,1.3,0,0,1,.1-.4l.2-.3.4-.2h.5l.3.2h0a1.6,1.6,0,0,1,.4.8v.3h0a1.3,1.3,0,0,1-.1.5l-.2.3h0l-.4.2H5Zm6.3,2.5-.2.3-.3.3H5.9l-.4-.2-.2-.2h0v-.6a1.5,1.5,0,0,1,0-.3v-.4h0l.4-.7h.1l.2-.2.4-.4.4-.5L7,7.9l.3-.3.4-.3h1l.5.3.3.4.3.4.3.4.4.4.2.2.4.5.2.4h0v.3A1.4,1.4,0,0,1,11.3,11.3Zm1.5-3.9h0v.2a1.7,1.7,0,0,1-.4.7h0l-.5.3h-.4l-.4-.2-.2-.2V7.9h0a1.6,1.6,0,0,1,.1-.5l.3-.5H11l.4-.3h.7l.2.2.2.3v.3h0Z" fill="#2a92a1"/><path d="M5.9,12.1l-.4-.2-.2-.2h.6Z" fill="#fff"/><path d="M11.1,11.6l-.3.3h.3Z" fill="#fff"/><path d="M3.8,7.2h0V7.2h0Z" fill="#9c9999"/><path d="M12.7,7.3h0Z" fill="#9c9999"/><path d="M12.7,7.1h0Z" fill="#9c9999"/><path d="M5.1,8.7h0Z" fill="#fff"/></svg>